mtllib model_295.mtl
o model_295
v -0.00980954896658659 -0.08455020189285278 0.2233770489692688 
v -0.012592008337378502 -0.07212162762880325 0.2213473618030548 
v -0.03324078023433685 -0.08298259228467941 0.20528250932693481 
v -0.035550620406866074 -0.07042346149682999 0.2044697403907776 
v -0.0549779087305069 -0.06824414432048798 0.1879735141992569 
v -0.03773731365799904 -0.0572398416697979 0.203520730137825 
v -0.05647897347807884 -0.05491536110639572 0.18785999715328217 
v -0.053536754101514816 -0.0808863565325737 0.18796443939208984 
v -0.015194738283753395 -0.05903295800089836 0.21915876865386963 
vn -0.5305644869804382 0.0037626309785991907 0.8476362228393555 
vn -0.519079864025116 0.018838951364159584 0.8545181155204773 
vn -0.6343117356300354 -0.05644059553742409 0.7710143327713013 
vn -0.6216086149215698 -0.04514468088746071 0.7820260524749756 
vn -0.6188961863517761 -0.03388074040412903 0.7847417593002319 
vn -0.6057203412055969 -0.018846936523914337 0.7954543828964233 
vn -0.6354696750640869 -0.04141489788889885 0.7710143327713013 
vn -0.5970339179039001 -0.048973698168992996 0.8007197380065918 
vn -0.5020365715026855 0.04885531961917877 0.8634653687477112 
s on 
f 1//1 2//2 3//3 
f 2//2 4//4 3//3 
f 3//3 4//4 5//5 
f 4//4 6//6 5//5 
f 5//5 6//6 7//7 
f 6//6 7//7 7//7 
f 7//7 7//7 5//5 
f 7//7 5//5 5//5 
f 5//5 5//5 3//3 
f 5//5 8//8 3//3 
f 3//3 8//8 8//8 
f 8//8 4//4 8//8 
f 8//8 4//4 4//4 
f 4//4 2//2 4//4 
f 4//4 2//2 6//6 
f 2//2 9//9 6//6 

