mtllib model_287.mtl
o model_287
v -0.18129999935626984 -0.08455020189285278 -0.11400258541107178 
v -0.1781715601682663 -0.07212162762880325 -0.11544585227966309 
v -0.15407216548919678 -0.08298259228467941 -0.1256266087293625 
v -0.15223488211631775 -0.07042346149682999 -0.12724857032299042 
v -0.1283596307039261 -0.06824414432048798 -0.1361510008573532 
v -0.15033762156963348 -0.0572398416697979 -0.12869183719158173 
v -0.12752622365951538 -0.05491536110639572 -0.13740642368793488 
v -0.12905097007751465 -0.0808863565325737 -0.13488642871379852 
v -0.1749894618988037 -0.05903295800089836 -0.11664628237485886 
vn -0.48154109716415405 0.007564652245491743 -0.8763908743858337 
vn -0.49252572655677795 0.022659603506326675 -0.8700028657913208 
vn -0.3661174476146698 -0.06028640642762184 -0.9286137819290161 
vn -0.38049840927124023 -0.04532085731625557 -0.9236704111099243 
vn -0.3813195526599884 -0.03779444471001625 -0.9236704111099243 
vn -0.3986288011074066 -0.02265680581331253 -0.916832447052002 
vn -0.3609568774700165 -0.03768502175807953 -0.931820809841156 
vn -0.40785935521125793 -0.05274311080574989 -0.9115201234817505 
vn -0.5099311470985413 0.04524482041597366 -0.8590245246887207 
s on 
f 1//1 2//2 3//3 
f 2//2 4//4 3//3 
f 3//3 4//4 5//5 
f 4//4 6//6 5//5 
f 5//5 6//6 7//7 
f 6//6 7//7 7//7 
f 7//7 7//7 5//5 
f 7//7 5//5 5//5 
f 5//5 5//5 3//3 
f 5//5 8//8 3//3 
f 3//3 8//8 8//8 
f 8//8 4//4 8//8 
f 8//8 4//4 4//4 
f 4//4 2//2 4//4 
f 4//4 2//2 6//6 
f 2//2 9//9 6//6 

