mtllib model_292.mtl
o model_292
v 0.09789010137319565 -0.1098472848534584 -0.17303599417209625 
v 0.09926626831293106 -0.09741999208927155 -0.16987501084804535 
v 0.10888361185789108 -0.10827862471342087 -0.14554369449615479 
v 0.110465407371521 -0.09572061151266098 -0.14367204904556274 
v 0.11881731450557709 -0.09354191273450851 -0.11959028244018555 
v 0.11185739189386368 -0.08253513276576996 -0.14173802733421326 
v 0.12005111575126648 -0.08021699637174606 -0.11873764544725418 
v 0.11756769567728043 -0.10618707537651062 -0.12031813710927963 
v 0.10038934648036957 -0.08433037996292114 -0.16666202247142792 
vn 0.8876782059669495 0.007557698059827089 -0.46040233969688416 
vn 0.8792368769645691 0.022646022960543633 -0.4758462607860565 
vn 0.9368323683738708 -0.0603783093392849 -0.34452807903289795 
vn 0.9330800175666809 -0.04530748724937439 -0.3568037748336792 
vn 0.9318472743034363 -0.037745941430330276 -0.36088213324546814 
vn 0.9258852005004883 -0.022640729323029518 -0.37712597846984863 
vn 0.9395137429237366 -0.03776417300105095 -0.34042292833328247 
vn 0.9213181138038635 -0.05282037332653999 -0.3852050006389618 
vn 0.8699005246162415 0.04527457430958748 -0.4911448359489441 
s on 
f 1//1 2//2 3//3 
f 2//2 4//4 3//3 
f 3//3 4//4 5//5 
f 4//4 6//6 5//5 
f 5//5 6//6 7//7 
f 6//6 7//7 7//7 
f 7//7 7//7 5//5 
f 7//7 5//5 5//5 
f 5//5 5//5 3//3 
f 5//5 8//8 3//3 
f 3//3 8//8 8//8 
f 8//8 4//4 8//8 
f 8//8 4//4 4//4 
f 4//4 2//2 4//4 
f 4//4 2//2 6//6 
f 2//2 9//9 6//6 

