mtllib model_290.mtl
o model_290
v 0.08242180198431015 -0.1098472848534584 0.17949210107326508 
v 0.07899506390094757 -0.09741999208927155 0.17916396260261536 
v 0.05304766446352005 -0.10827862471342087 0.17576946318149567 
v 0.05063847452402115 -0.09572061151266098 0.17624469101428986 
v 0.02554401569068432 -0.09354191273450851 0.1718657910823822 
v 0.04827417805790901 -0.08253513276576996 0.17652757465839386 
v 0.02418229915201664 -0.08021699637174606 0.17252205312252045 
v 0.026771055534482002 -0.10618707537651062 0.17111900448799133 
v 0.0756431519985199 -0.08433037996292114 0.1785869002342224 
vn -0.028736714273691177 0.01045930851250887 0.9995322823524475 
vn -0.015116721391677856 0.02141551487147808 0.9996563792228699 
vn -0.15586771070957184 -0.054964493960142136 0.9862475395202637 
vn -0.14018331468105316 -0.04750397801399231 0.9889853596687317 
vn -0.1353157013654709 -0.0333523228764534 0.9902410507202148 
vn -0.12062158435583115 -0.01853928528726101 0.9925254583358765 
vn -0.1601935178041458 -0.04066791012883186 0.9862475395202637 
vn -0.10948682576417923 -0.05390646308660507 0.9925254583358765 
vn 0.009147304110229015 0.04716598615050316 0.9988451600074768 
s on 
f 1//1 2//2 3//3 
f 2//2 4//4 3//3 
f 3//3 4//4 5//5 
f 4//4 6//6 5//5 
f 5//5 6//6 7//7 
f 6//6 7//7 7//7 
f 7//7 7//7 5//5 
f 7//7 5//5 5//5 
f 5//5 5//5 3//3 
f 5//5 8//8 3//3 
f 3//3 8//8 8//8 
f 8//8 4//4 8//8 
f 8//8 4//4 4//4 
f 4//4 2//2 4//4 
f 4//4 2//2 6//6 
f 2//2 9//9 6//6 

