mtllib model_302.mtl
o model_302
v -0.1849575787782669 -0.1098472848534584 -0.07847431302070618 
v -0.18192453682422638 -0.09741999208927155 -0.08008435368537903 
v -0.15844197571277618 -0.10827862471342087 -0.09163393825292587 
v -0.15670137107372284 -0.09572061151266098 -0.09335898607969284 
v -0.1333751380443573 -0.09354191273450851 -0.10361067950725555 
v -0.15489822626113892 -0.08253513276576996 -0.09490331262350082 
v -0.13261426985263824 -0.08021699637174606 -0.1049249991774559 
v -0.1340005099773407 -0.10618707537651062 -0.10231278836727142 
v -0.17881855368614197 -0.08433037996292114 -0.08146438747644424 
vn -0.5305643677711487 0.0037796946708112955 -0.8476362228393555 
vn -0.5449828505516052 0.01890508458018303 -0.838234007358551 
vn -0.41886094212532043 -0.060223113745450974 -0.9060511589050293 
vn -0.4326513707637787 -0.045220427215099335 -0.9004265069961548 
vn -0.4376220107078552 -0.033967889845371246 -0.8985171914100647 
vn -0.45028287172317505 -0.018872443586587906 -0.8926864862442017 
vn -0.4131529927253723 -0.041523147374391556 -0.9097144603729248 
vn -0.45931127667427063 -0.052839506417512894 -0.8867024183273315 
vn -0.5577188730239868 0.049110498279333115 -0.8285757899284363 
s on 
f 1//1 2//2 3//3 
f 2//2 4//4 3//3 
f 3//3 4//4 5//5 
f 4//4 6//6 5//5 
f 5//5 6//6 7//7 
f 6//6 7//7 7//7 
f 7//7 7//7 5//5 
f 7//7 5//5 5//5 
f 5//5 5//5 3//3 
f 5//5 8//8 3//3 
f 3//3 8//8 8//8 
f 8//8 4//4 8//8 
f 8//8 4//4 4//4 
f 4//4 2//2 4//4 
f 4//4 2//2 6//6 
f 2//2 9//9 6//6 

