mtllib model_301.mtl
o model_301
v -0.19592107832431793 -0.08455020189285278 0.02506539411842823 
v -0.19444887340068817 -0.07212162762880325 0.02195163071155548 
v -0.18252354860305786 -0.08298259228467941 -0.0013322139857336879 
v -0.18215426802635193 -0.07042346149682999 -0.0037577301263809204 
v -0.16957901418209076 -0.06824414432048798 -0.02592039667069912 
v -0.18163235485553741 -0.0572398416697979 -0.006080564111471176 
v -0.1697513461112976 -0.05491536110639572 -0.027416225522756577 
v -0.16929836571216583 -0.0808863565325737 -0.024505050852894783 
v -0.1927846521139145 -0.05903295800089836 0.018984951078891754 
vn -0.931018054485321 0.00377405877225101 -0.3649536371231079 
vn -0.9369879961013794 0.022647753357887268 -0.34862664341926575 
vn -0.8774556517601013 -0.06034861505031586 -0.4758462607860565 
vn -0.8847167491912842 -0.04151430353522301 -0.4642767012119293 
vn -0.8869061470031738 -0.03777753561735153 -0.46040233969688416 
vn -0.8954219818115234 -0.01888233609497547 -0.44481781125068665 
vn -0.8745217323303223 -0.03776232898235321 -0.4835140109062195 
vn -0.8979195356369019 -0.05285847559571266 -0.43697428703308105 
vn -0.941935122013092 0.0490497350692749 -0.33219319581985474 
s on 
f 1//1 2//2 3//3 
f 2//2 4//4 3//3 
f 3//3 4//4 5//5 
f 4//4 6//6 5//5 
f 5//5 6//6 7//7 
f 6//6 7//7 7//7 
f 7//7 7//7 5//5 
f 7//7 5//5 5//5 
f 5//5 5//5 3//3 
f 5//5 8//8 3//3 
f 3//3 8//8 8//8 
f 8//8 4//4 8//8 
f 8//8 4//4 4//4 
f 4//4 2//2 4//4 
f 4//4 2//2 6//6 
f 2//2 9//9 6//6 

