mtllib model_274.mtl
o model_274
v 0.011975369416177273 1.5328923463821411 -0.020740218460559845 
v 0.0041929977014660835 1.5328923463821411 -0.023550890386104584 
v 0.018374208360910416 1.5328923463821411 -0.015374388545751572 
v 0.0239948108792305 1.5328923463821411 -0.00004344629996921867 
v 0.02252480760216713 1.5328923463821411 -0.008219948969781399 
v -0.004194669891148806 1.5328923463821411 -0.023550890386104584 
v -0.011977042071521282 1.5328923463821411 -0.020740218460559845 
v -0.02252648025751114 1.5328923463821411 -0.008219948969781399 
v -0.018375881016254425 1.5328923463821411 -0.015374388545751572 
v -0.02391001209616661 1.5328923463821411 0.00004172560147708282 
v -0.02252648025751114 1.5328923463821411 0.00821822788566351 
v -0.011977042071521282 1.5328923463821411 0.020738497376441956 
v 0.0041929977014660835 1.5328923463821411 0.02363434247672558 
v 0.018374208360910416 1.5328923463821411 0.015372667461633682 
v 0.011975369416177273 1.5328923463821411 0.020738497376441956 
v -0.018375881016254425 1.5328923463821411 0.015457839705049992 
v -0.004194669891148806 1.5328923463821411 0.02363434247672558 
v 0.02252480760216713 1.5328923463821411 0.00821822788566351 
v 0.04422897845506668 -1.532920002937317 0.07661126554012299 
v 0.024686576798558235 -1.2363734245300293 0.042712848633527756 
v 0.03783014044165611 -1.2363734245300293 0.031725671142339706 
v 0.011975369416177273 -1.2333780527114868 0.020738497376441956 
v 0.06783550977706909 -1.532920002937317 0.05693655461072922 
v 0.015347730368375778 -1.532920002937317 0.08717258274555206 
v 0.008603008463978767 -1.2363734245300293 0.048589710146188736 
v -0.015349403023719788 -1.532920002937317 0.08717258274555206 
v -0.008604681119322777 -1.2363734245300293 0.048589710146188736 
v -0.04423065111041069 -1.532920002937317 0.07661126554012299 
v -0.024688249453902245 -1.2363734245300293 0.042712848633527756 
v -0.0677507072687149 -1.532920002937317 0.05693655461072922 
v -0.037831809371709824 -1.2363734245300293 0.031725671142339706 
v -0.08314251154661179 -1.532920002937317 0.03027774952352047 
v -0.046392422169446945 -1.2363734245300293 0.016905762255191803 
v -0.08850370347499847 -1.532920002937317 0.00004172560147708282 
v -0.049332428723573685 -1.2363734245300293 0.00004172560147708282 
v -0.08314251154661179 -1.532920002937317 -0.03027947060763836 
v -0.046392422169446945 -1.2363734245300293 -0.01682231016457081 
v -0.0677507072687149 -1.532920002937317 -0.05693827569484711 
v -0.037831809371709824 -1.2363734245300293 -0.031727392226457596 
v -0.04423065111041069 -1.532920002937317 -0.07661298662424088 
v -0.024688249453902245 -1.2363734245300293 -0.042714569717645645 
v -0.015349403023719788 -1.532920002937317 -0.08717429637908936 
v -0.008604681119322777 -1.2363734245300293 -0.04859142750501633 
v 0.015347730368375778 -1.532920002937317 -0.08717429637908936 
v 0.008603008463978767 -1.2363734245300293 -0.04859142750501633 
v 0.04422897845506668 -1.532920002937317 -0.07661298662424088 
v 0.024686576798558235 -1.2363734245300293 -0.042714569717645645 
v 0.06783550977706909 -1.532920002937317 -0.05693827569484711 
v 0.03783014044165611 -1.2363734245300293 -0.031727392226457596 
v 0.018374208360910416 -1.2333780527114868 -0.015374388545751572 
v 0.011975369416177273 -1.2333780527114868 -0.020740218460559845 
v 0.0041929977014660835 -1.2333780527114868 -0.023550890386104584 
v -0.004194669891148806 -1.2333780527114868 -0.023550890386104584 
v -0.011977042071521282 -1.2333780527114868 -0.020740218460559845 
v -0.018375881016254425 -1.2333780527114868 -0.015374388545751572 
v -0.02252648025751114 -1.2333780527114868 -0.008219948969781399 
v -0.02391001209616661 -1.2333780527114868 0.00004172560147708282 
v -0.02252648025751114 -1.2333780527114868 0.00821822788566351 
v -0.018375881016254425 -1.2333780527114868 0.015457839705049992 
v -0.011977042071521282 -1.2333780527114868 0.020738497376441956 
v -0.004194669891148806 -1.2333780527114868 0.02363434247672558 
v 0.0041929977014660835 -1.2333780527114868 0.02363434247672558 
v 0.011975369416177273 -1.0746207237243652 0.020738497376441956 
v 0.0041929977014660835 -1.0746207237243652 0.02363434247672558 
v -0.004194669891148806 -1.0746207237243652 0.02363434247672558 
v -0.011977042071521282 -1.0746207237243652 0.020738497376441956 
v -0.018375881016254425 -1.0746207237243652 0.015457839705049992 
v -0.02252648025751114 -1.0746207237243652 0.00821822788566351 
v -0.02391001209616661 -1.0746207237243652 0.00004172560147708282 
v -0.02252648025751114 -1.0746207237243652 -0.008219948969781399 
v -0.018375881016254425 -1.0746207237243652 -0.015374388545751572 
v -0.011977042071521282 -1.0746207237243652 -0.020740218460559845 
v -0.004194669891148806 -1.0746207237243652 -0.023550890386104584 
v 0.0041929977014660835 -1.0746207237243652 -0.023550890386104584 
v 0.011975369416177273 -1.0746207237243652 -0.020740218460559845 
v 0.018374208360910416 -1.0746207237243652 -0.015374388545751572 
v 0.011975369416177273 1.5328923463821411 -0.020740218460559845 
v 0.018374208360910416 1.5328923463821411 -0.015374388545751572 
v 0.0041929977014660835 1.5328923463821411 -0.023550890386104584 
v -0.004194669891148806 1.5328923463821411 -0.023550890386104584 
v -0.011977042071521282 1.5328923463821411 -0.020740218460559845 
v -0.018375881016254425 1.5328923463821411 -0.015374388545751572 
v -0.02252648025751114 1.5328923463821411 -0.008219948969781399 
v -0.02391001209616661 1.5328923463821411 0.00004172560147708282 
v -0.02252648025751114 1.5328923463821411 0.00821822788566351 
v -0.018375881016254425 1.5328923463821411 0.015457839705049992 
v -0.011977042071521282 1.5328923463821411 0.020738497376441956 
v -0.004194669891148806 1.5328923463821411 0.02363434247672558 
v 0.0041929977014660835 1.5328923463821411 0.02363434247672558 
v 0.011975369416177273 1.5328923463821411 0.020738497376441956 
v 0.018374208360910416 1.5328923463821411 0.015372667461633682 
v 0.018374208360910416 -1.0746207237243652 0.015372667461633682 
v 0.02252480760216713 1.5328923463821411 0.00821822788566351 
v 0.018374208360910416 -1.2333780527114868 0.015372667461633682 
v 0.046390749514102936 -1.2363734245300293 0.016905762255191803 
v 0.08314083516597748 -1.532920002937317 0.03027774952352047 
v 0.049330756068229675 -1.2363734245300293 0.00004172560147708282 
v 0.08850202709436417 -1.532920002937317 0.00004172560147708282 
v 0.046390749514102936 -1.2363734245300293 -0.01682231016457081 
v 0.08314083516597748 -1.532920002937317 -0.03027947060763836 
v 0.03783014044165611 -1.2363734245300293 -0.031727392226457596 
v 0.06783550977706909 -1.532920002937317 -0.05693827569484711 
v 0.02252480760216713 -1.2333780527114868 -0.008219948969781399 
v 0.018374208360910416 -1.2333780527114868 -0.015374388545751572 
v 0.018374208360910416 -1.0746207237243652 -0.015374388545751572 
v 0.02252480760216713 -1.0746207237243652 -0.008219948969781399 
v 0.018374208360910416 1.5328923463821411 -0.015374388545751572 
v 0.02252480760216713 1.5328923463821411 -0.008219948969781399 
v 0.0239948108792305 -1.0746207237243652 -0.00004344629996921867 
v 0.0239948108792305 1.5328923463821411 -0.00004344629996921867 
v 0.0239948108792305 -1.2333780527114868 -0.00004344629996921867 
v 0.02252480760216713 -1.2333780527114868 0.00821822788566351 
v 0.02252480760216713 -1.0746207237243652 0.00821822788566351 
vn 0.4418638348579407 0.45387905836105347 -0.7737894654273987 
vn 0.0754668191075325 0.8963025212287903 -0.43697428703308105 
vn 0.5380777716636658 0.7110560536384583 -0.45262736082077026 
vn 0.4445439279079437 0.8957543969154358 0.002184694167226553 
vn 0.8387867212295532 0.4494108557701111 -0.30735430121421814 
vn -0.15409503877162933 0.45223408937454224 -0.8784868121147156 
vn -0.35038626194000244 0.7126496434211731 -0.607749879360199 
vn -0.41849055886268616 0.8957195281982422 -0.15017375349998474 
vn -0.6814737319946289 0.4559139907360077 -0.5724822878837585 
vn -0.8923717141151428 0.4512958228588104 -0.002184694167226553 
vn -0.6592164039611816 0.7125802636146545 0.2401314377784729 
vn -0.22040334343910217 0.8978487849235535 0.3811691105365753 
vn 0.09224200248718262 0.836720883846283 0.5398051738739014 
vn 0.5389606952667236 0.710387110710144 0.45262736082077026 
vn 0.44695574045181274 0.4536159932613373 0.7710143327713013 
vn -0.6810866594314575 0.4519696533679962 0.5760593414306641 
vn -0.1569083333015442 0.45126569271087646 0.8784868121147156 
vn 0.8387867212295532 0.4494108557701111 0.30735430121421814 
vn 0.49408218264579773 0.13401365280151367 0.8590245246887207 
vn 0.3547718822956085 0.7074987292289734 0.6112139225006104 
vn 0.5389606952667236 0.710387110710144 0.45262736082077026 
vn 0.3784131407737732 0.6604598760604858 0.6485338807106018 
vn 0.7589606046676636 0.12765447795391083 0.6385006904602051 
vn 0.17175813019275665 0.132187619805336 0.976230263710022 
vn 0.12009268254041672 0.7100305557250977 0.6938546895980835 
vn -0.17175813019275665 0.132187619805336 0.976230263710022 
vn -0.12009268254041672 0.7100305557250977 0.6938546895980835 
vn -0.49505478143692017 0.13037492334842682 0.8590245246887207 
vn -0.3513950705528259 0.7091819643974304 0.6112139225006104 
vn -0.7583258152008057 0.13137266039848328 0.6385006904602051 
vn -0.5419595837593079 0.7081018686294556 0.45262736082077026 
vn -0.9310164451599121 0.1316077709197998 0.34042292833328247 
vn -0.6647375822067261 0.7074325680732727 0.2401314377784729 
vn -0.991767942905426 0.1280297040939331 0.002184694167226553 
vn -0.7071051001548767 0.7071051001548767 0.002184694167226553 
vn -0.9315146803855896 0.12803374230861664 -0.34042292833328247 
vn -0.6647375822067261 0.7074325680732727 -0.2401314377784729 
vn -0.7589273452758789 0.12785208225250244 -0.6385006904602051 
vn -0.5380777716636658 0.7110560536384583 -0.45262736082077026 
vn -0.49399876594543457 0.13432082533836365 -0.8590245246887207 
vn -0.3535822033882141 0.70809406042099 -0.6112139225006104 
vn -0.1707901805639267 0.1334359049797058 -0.976230263710022 
vn -0.12215273827314377 0.7096790671348572 -0.6938546895980835 
vn 0.1707901805639267 0.1334359049797058 -0.976230263710022 
vn 0.1258731186389923 0.7090286612510681 -0.6938546895980835 
vn 0.49399876594543457 0.13432082533836365 -0.8590245246887207 
vn 0.3535822033882141 0.70809406042099 -0.6112139225006104 
vn 0.7589273452758789 0.12785208225250244 -0.6385006904602051 
vn 0.5380777716636658 0.7110560536384583 -0.45262736082077026 
vn 0.5747791528701782 0.6601841449737549 -0.4835140109062195 
vn 0.37731656432151794 0.6610869765281677 -0.6485338807106018 
vn 0.1276145726442337 0.6609179973602295 -0.7395281791687012 
vn -0.1276145726442337 0.6609179973602295 -0.7395281791687012 
vn -0.3740309476852417 0.6629514694213867 -0.6485338807106018 
vn -0.5747791528701782 0.6601841449737549 -0.4835140109062195 
vn -0.7069485187530518 0.6588959693908691 -0.25706008076667786 
vn -0.7485089898109436 0.6631211042404175 -0.002184694167226553 
vn -0.7049880623817444 0.6609931588172913 0.25706008076667786 
vn -0.572705090045929 0.6619842052459717 0.4835140109062195 
vn -0.37184926867485046 0.6641775965690613 0.6485338807106018 
vn -0.13293735682964325 0.6598680019378662 0.7395281791687012 
vn 0.12924005091190338 0.6606020927429199 0.7395281791687012 
vn 0.5006305575370789 0 0.865661084651947 
vn 0.1738872230052948 0 0.9847655892372131 
vn -0.1738872230052948 -3.596389746879543e-14 0.9847655892372131 
vn -0.5006305575370789 -1.0354196476993274e-13 0.865661084651947 
vn -0.7640029191970825 0.003767983289435506 0.6452018022537231 
vn -0.940264880657196 0.0037725989241153 0.34042292833328247 
vn -0.999997615814209 -2.0682260971124217e-13 -0.002184694167226553 
vn -0.9402724504470825 -1.9447006396715316e-13 -0.34042292833328247 
vn -0.7668240666389465 -1.5859693116085372e-13 -0.641857385635376 
vn -0.5006305575370789 -1.0354196476993274e-13 -0.865661084651947 
vn -0.1738872230052948 -3.596389746879543e-14 -0.9847655892372131 
vn 0.1738872230052948 0 -0.9847655892372131 
vn 0.5006305575370789 0 -0.865661084651947 
vn 0.7668240666389465 0 -0.641857385635376 
vn 0.4418638348579407 0.45387905836105347 -0.7737894654273987 
vn 0.5380777716636658 0.7110560536384583 -0.45262736082077026 
vn 0.0754668191075325 0.8963025212287903 -0.43697428703308105 
vn -0.15409503877162933 0.45223408937454224 -0.8784868121147156 
vn -0.35038626194000244 0.7126496434211731 -0.607749879360199 
vn -0.6814737319946289 0.4559139907360077 -0.5724822878837585 
vn -0.41849055886268616 0.8957195281982422 -0.15017375349998474 
vn -0.8923717141151428 0.4512958228588104 -0.002184694167226553 
vn -0.6592164039611816 0.7125802636146545 0.2401314377784729 
vn -0.6810866594314575 0.4519696533679962 0.5760593414306641 
vn -0.22040334343910217 0.8978487849235535 0.3811691105365753 
vn -0.1569083333015442 0.45126569271087646 0.8784868121147156 
vn 0.09224200248718262 0.836720883846283 0.5398051738739014 
vn 0.44695574045181274 0.4536159932613373 0.7710143327713013 
vn 0.5389606952667236 0.710387110710144 0.45262736082077026 
vn 0.7668240666389465 0 0.641857385635376 
vn 0.8387867212295532 0.4494108557701111 0.30735430121421814 
vn 0.5755525231361389 0.6595100164413452 0.4835140109062195 
vn 0.6647375822067261 0.7074325680732727 0.2401314377784729 
vn 0.9315369725227356 0.12787124514579773 0.34042292833328247 
vn 0.7071051001548767 0.7071051001548767 0.002184694167226553 
vn 0.991767942905426 0.1280297040939331 0.002184694167226553 
vn 0.6647375822067261 0.7074325680732727 -0.2401314377784729 
vn 0.9315146803855896 0.12803374230861664 -0.34042292833328247 
vn 0.5380777716636658 0.7110560536384583 -0.45262736082077026 
vn 0.7589273452758789 0.12785208225250244 -0.6385006904602051 
vn 0.7069485187530518 0.6588959693908691 -0.25706008076667786 
vn 0.5747791528701782 0.6601841449737549 -0.4835140109062195 
vn 0.7668240666389465 0 -0.641857385635376 
vn 0.9387760162353516 0 -0.34452807903289795 
vn 0.5380777716636658 0.7110560536384583 -0.45262736082077026 
vn 0.8387867212295532 0.4494108557701111 -0.30735430121421814 
vn 0.999997615814209 0 0.002184694167226553 
vn 0.4445439279079437 0.8957543969154358 0.002184694167226553 
vn 0.7485089898109436 0.6631211042404175 0.002184694167226553 
vn 0.7024031281471252 0.6637393832206726 0.25706008076667786 
vn 0.9387760162353516 0 0.34452807903289795 
s on 
f 1//1 2//2 3//3 
f 2//2 4//4 3//3 
f 3//3 4//4 5//5 
f 4//4 5//5 5//5 
f 5//5 5//5 6//6 
f 5//5 6//6 6//6 
f 6//6 6//6 2//2 
f 6//6 7//7 2//2 
f 2//2 7//7 8//8 
f 7//7 9//9 8//8 
f 8//8 9//9 9//9 
f 9//9 10//10 9//9 
f 9//9 10//10 10//10 
f 10//10 11//11 10//10 
f 10//10 11//11 8//8 
f 11//11 12//12 8//8 
f 8//8 12//12 2//2 
f 12//12 12//12 2//2 
f 2//2 12//12 4//4 
f 12//12 13//13 4//4 
f 4//4 13//13 14//14 
f 13//13 15//15 14//14 
f 14//14 15//15 15//15 
f 15//15 11//11 15//15 
f 15//15 11//11 11//11 
f 11//11 16//16 11//11 
f 11//11 16//16 12//12 
f 16//16 12//12 12//12 
f 12//12 12//12 13//13 
f 12//12 13//13 13//13 
f 13//13 13//13 17//17 
f 13//13 12//12 17//17 
f 17//17 12//12 12//12 
f 12//12 4//4 12//12 
f 12//12 4//4 4//4 
f 4//4 14//14 4//4 
f 4//4 14//14 18//18 
f 14//14 18//18 18//18 
f 18//18 18//18 19//19 
f 18//18 19//19 19//19 
f 19//19 19//19 20//20 
f 19//19 21//21 20//20 
f 20//20 21//21 22//22 
f 21//21 22//22 22//22 
f 22//22 22//22 19//19 
f 22//22 19//19 19//19 
f 19//19 19//19 21//21 
f 19//19 23//23 21//21 
f 21//21 23//23 23//23 
f 23//23 19//19 23//23 
f 23//23 19//19 19//19 
f 19//19 20//20 19//19 
f 19//19 20//20 24//24 
f 20//20 25//25 24//24 
f 24//24 25//25 26//26 
f 25//25 27//27 26//26 
f 26//26 27//27 28//28 
f 27//27 29//29 28//28 
f 28//28 29//29 30//30 
f 29//29 31//31 30//30 
f 30//30 31//31 32//32 
f 31//31 33//33 32//32 
f 32//32 33//33 34//34 
f 33//33 35//35 34//34 
f 34//34 35//35 36//36 
f 35//35 37//37 36//36 
f 36//36 37//37 38//38 
f 37//37 39//39 38//38 
f 38//38 39//39 40//40 
f 39//39 41//41 40//40 
f 40//40 41//41 42//42 
f 41//41 43//43 42//42 
f 42//42 43//43 44//44 
f 43//43 45//45 44//44 
f 44//44 45//45 46//46 
f 45//45 47//47 46//46 
f 46//46 47//47 48//48 
f 47//47 47//47 48//48 
f 48//48 47//47 49//49 
f 47//47 47//47 49//49 
f 49//49 47//47 50//50 
f 47//47 47//47 50//50 
f 50//50 47//47 51//51 
f 47//47 45//45 51//51 
f 51//51 45//45 52//52 
f 45//45 43//43 52//52 
f 52//52 43//43 53//53 
f 43//43 41//41 53//53 
f 53//53 41//41 54//54 
f 41//41 39//39 54//54 
f 54//54 39//39 55//55 
f 39//39 37//37 55//55 
f 55//55 37//37 56//56 
f 37//37 35//35 56//56 
f 56//56 35//35 57//57 
f 35//35 33//33 57//57 
f 57//57 33//33 58//58 
f 33//33 31//31 58//58 
f 58//58 31//31 59//59 
f 31//31 29//29 59//59 
f 59//59 29//29 60//60 
f 29//29 27//27 60//60 
f 60//60 27//27 61//61 
f 27//27 25//25 61//61 
f 61//61 25//25 62//62 
f 25//25 20//20 62//62 
f 62//62 20//20 62//62 
f 20//20 22//22 62//62 
f 62//62 22//22 62//62 
f 22//22 63//63 62//62 
f 62//62 63//63 62//62 
f 63//63 64//64 62//62 
f 62//62 64//64 61//61 
f 64//64 65//65 61//61 
f 61//61 65//65 60//60 
f 65//65 66//66 60//60 
f 60//60 66//66 59//59 
f 66//66 67//67 59//59 
f 59//59 67//67 58//58 
f 67//67 68//68 58//58 
f 58//58 68//68 57//57 
f 68//68 69//69 57//57 
f 57//57 69//69 56//56 
f 69//69 70//70 56//56 
f 56//56 70//70 55//55 
f 70//70 71//71 55//55 
f 55//55 71//71 54//54 
f 71//71 72//72 54//54 
f 54//54 72//72 53//53 
f 72//72 73//73 53//53 
f 53//53 73//73 52//52 
f 73//73 74//74 52//52 
f 52//52 74//74 51//51 
f 74//74 75//75 51//51 
f 51//51 75//75 50//50 
f 75//75 75//75 50//50 
f 50//50 75//75 76//76 
f 75//75 77//77 76//76 
f 76//76 77//77 78//78 
f 77//77 78//78 78//78 
f 78//78 78//78 77//77 
f 78//78 77//77 77//77 
f 77//77 77//77 79//79 
f 77//77 75//75 79//79 
f 79//79 75//75 79//79 
f 75//75 74//74 79//79 
f 79//79 74//74 80//80 
f 74//74 73//73 80//80 
f 80//80 73//73 81//81 
f 73//73 72//72 81//81 
f 81//81 72//72 82//82 
f 72//72 71//71 82//82 
f 82//82 71//71 83//83 
f 71//71 70//70 83//83 
f 83//83 70//70 84//84 
f 70//70 69//69 84//84 
f 84//84 69//69 85//85 
f 69//69 68//68 85//85 
f 85//85 68//68 86//86 
f 68//68 67//67 86//86 
f 86//86 67//67 87//87 
f 67//67 66//66 87//87 
f 87//87 66//66 88//88 
f 66//66 65//65 88//88 
f 88//88 65//65 89//89 
f 65//65 64//64 89//89 
f 89//89 64//64 90//90 
f 64//64 63//63 90//90 
f 90//90 63//63 91//91 
f 63//63 92//92 91//91 
f 91//91 92//92 93//93 
f 92//92 93//93 93//93 
f 93//93 93//93 63//63 
f 93//93 63//63 63//63 
f 63//63 63//63 92//92 
f 63//63 22//22 92//92 
f 92//92 22//22 94//94 
f 22//22 21//21 94//94 
f 94//94 21//21 95//95 
f 21//21 23//23 95//95 
f 95//95 23//23 95//95 
f 23//23 96//96 95//95 
f 95//95 96//96 97//97 
f 96//96 98//98 97//97 
f 97//97 98//98 99//99 
f 98//98 100//100 99//99 
f 99//99 100//100 101//101 
f 100//100 102//102 101//101 
f 101//101 102//102 102//102 
f 102//102 99//99 102//102 
f 102//102 99//99 99//99 
f 99//99 101//101 99//99 
f 99//99 101//101 103//103 
f 101//101 104//104 103//103 
f 103//103 104//104 103//103 
f 104//104 105//105 103//103 
f 103//103 105//105 106//106 
f 105//105 107//107 106//106 
f 106//106 107//107 106//106 
f 107//107 108//108 106//106 
f 106//106 108//108 109//109 
f 108//108 110//110 109//109 
f 109//109 110//110 110//110 
f 110//110 109//109 110//110 
f 110//110 109//109 109//109 
f 109//109 111//111 109//109 
f 109//109 111//111 106//106 
f 111//111 111//111 106//106 
f 106//106 111//111 103//103 
f 111//111 111//111 103//103 
f 103//103 111//111 99//99 
f 111//111 111//111 99//99 
f 99//99 111//111 97//97 
f 111//111 112//112 97//97 
f 97//97 112//112 95//95 
f 112//112 112//112 95//95 
f 95//95 112//112 94//94 
f 112//112 113//113 94//94 
f 94//94 113//113 92//92 
f 113//113 113//113 92//92 
f 92//92 113//113 93//93 
f 113//113 113//113 93//93 
f 93//93 113//113 110//110 
f 113//113 113//113 110//110 
f 110//110 113//113 109//109 
f 113//113 112//112 109//109 
f 109//109 112//112 111//111 

