mtllib model_279.mtl
o model_279
v 0.017593931406736374 1.5490444898605347 -0.009918914176523685 
v 0.012785874307155609 1.5490444898605347 -0.015109097585082054 
v 0.018917890265583992 1.5490444898605347 -0.003448959905654192 
v 0.017593931406736374 1.5490444898605347 0.009917539544403553 
v 0.018917890265583992 1.5490444898605347 0.0033764864783734083 
v 0.006653857883065939 1.5490444898605347 -0.018450722098350525 
v 0.00003406800169614144 1.5490444898605347 -0.019730493426322937 
v -0.01278742030262947 1.5490444898605347 -0.015109097585082054 
v -0.006655403878539801 1.5490444898605347 -0.018450722098350525 
v -0.017595477402210236 1.5490444898605347 -0.009918914176523685 
v -0.018919436261057854 1.5490444898605347 -0.003448959905654192 
v -0.017595477402210236 1.5490444898605347 0.009917539544403553 
v -0.006655403878539801 1.5490444898605347 0.018449347466230392 
v 0.006653857883065939 1.5490444898605347 0.018449347466230392 
v 0.00003406800169614144 1.5490444898605347 0.01965801976621151 
v -0.018919436261057854 1.5490444898605347 0.0033764864783734083 
v -0.01278742030262947 1.5490444898605347 0.015107722021639347 
v 0.012785874307155609 1.5490444898605347 0.015107722021639347 
v 0.00003406800169614144 -1.549090027809143 0.07276852428913116 
v 0.00003406800169614144 -1.2494169473648071 0.040560949593782425 
v 0.014179513789713383 -1.2494169473648071 0.03814360499382019 
v 0.00003406800169614144 -1.2463899850845337 0.01965801976621151 
v 0.024701496586203575 -1.549090027809143 0.06843151897192001 
v -0.024703042581677437 -1.549090027809143 0.06843151897192001 
v -0.014181059785187244 -1.2494169473648071 0.03814360499382019 
v -0.04707096517086029 -1.549090027809143 0.055704910308122635 
v -0.026096681132912636 -1.2494169473648071 0.03103376366198063 
v -0.06288877874612808 -1.549090027809143 0.036366142332553864 
v -0.034667566418647766 -1.2494169473648071 0.020297905430197716 
v -0.0713203027844429 -1.549090027809143 0.012619278393685818 
v -0.04038149118423462 -1.2494169473648071 0.007073603104799986 
v -0.0713203027844429 -1.549090027809143 -0.012620653957128525 
v -0.04038149118423462 -1.2494169473648071 -0.007074978202581406 
v -0.06288877874612808 -1.549090027809143 -0.036367520689964294 
v -0.034667566418647766 -1.2494169473648071 -0.020299280062317848 
v -0.04700128361582756 -1.549090027809143 -0.05570628494024277 
v -0.026096681132912636 -1.2494169473648071 -0.03103513829410076 
v -0.024703042581677437 -1.549090027809143 -0.06843289732933044 
v -0.014181059785187244 -1.2494169473648071 -0.03821607679128647 
v 0.00003406800169614144 -1.549090027809143 -0.0727699026465416 
v 0.00003406800169614144 -1.2494169473648071 -0.04056232422590256 
v 0.024701496586203575 -1.549090027809143 -0.06843289732933044 
v 0.014179513789713383 -1.2494169473648071 -0.03821607679128647 
v 0.0469997376203537 -1.549090027809143 -0.05570628494024277 
v 0.026095135137438774 -1.2494169473648071 -0.03103513829410076 
v 0.06288722902536392 -1.549090027809143 -0.036367520689964294 
v 0.034666020423173904 -1.2494169473648071 -0.020299280062317848 
v 0.07131875306367874 -1.549090027809143 -0.012620653957128525 
v 0.04037994518876076 -1.2494169473648071 -0.007074978202581406 
v 0.018917890265583992 -1.2463899850845337 -0.003448959905654192 
v 0.017593931406736374 -1.2463899850845337 -0.009918914176523685 
v 0.012785874307155609 -1.2463899850845337 -0.015109097585082054 
v 0.006653857883065939 -1.2463899850845337 -0.018450722098350525 
v 0.00003406800169614144 -1.2463899850845337 -0.019730493426322937 
v -0.006655403878539801 -1.2463899850845337 -0.018450722098350525 
v -0.01278742030262947 -1.2463899850845337 -0.015109097585082054 
v -0.017595477402210236 -1.2463899850845337 -0.009918914176523685 
v -0.018919436261057854 -1.2463899850845337 -0.003448959905654192 
v -0.018919436261057854 -1.2463899850845337 0.0033764864783734083 
v -0.017595477402210236 -1.2463899850845337 0.009917539544403553 
v -0.01278742030262947 -1.2463899850845337 0.015107722021639347 
v -0.006655403878539801 -1.2463899850845337 0.018449347466230392 
v 0.00003406800169614144 -1.0859589576721191 0.01965801976621151 
v -0.006655403878539801 -1.0859589576721191 0.018449347466230392 
v -0.01278742030262947 -1.0859589576721191 0.015107722021639347 
v -0.017595477402210236 -1.0859589576721191 0.009917539544403553 
v -0.018919436261057854 -1.0859589576721191 0.0033764864783734083 
v -0.018919436261057854 -1.0859589576721191 -0.003448959905654192 
v -0.017595477402210236 -1.0859589576721191 -0.009918914176523685 
v -0.01278742030262947 -1.0859589576721191 -0.015109097585082054 
v -0.006655403878539801 -1.0859589576721191 -0.018450722098350525 
v 0.00003406800169614144 -1.0859589576721191 -0.019730493426322937 
v 0.006653857883065939 -1.0859589576721191 -0.018450722098350525 
v 0.012785874307155609 -1.0859589576721191 -0.015109097585082054 
v 0.017593931406736374 -1.0859589576721191 -0.009918914176523685 
v 0.018917890265583992 -1.0859589576721191 -0.003448959905654192 
v 0.017593931406736374 1.5490444898605347 -0.009918914176523685 
v 0.018917890265583992 1.5490444898605347 -0.003448959905654192 
v 0.012785874307155609 1.5490444898605347 -0.015109097585082054 
v 0.006653857883065939 1.5490444898605347 -0.018450722098350525 
v 0.00003406800169614144 1.5490444898605347 -0.019730493426322937 
v -0.006655403878539801 1.5490444898605347 -0.018450722098350525 
v -0.01278742030262947 1.5490444898605347 -0.015109097585082054 
v -0.017595477402210236 1.5490444898605347 -0.009918914176523685 
v -0.018919436261057854 1.5490444898605347 -0.003448959905654192 
v -0.018919436261057854 1.5490444898605347 0.0033764864783734083 
v -0.017595477402210236 1.5490444898605347 0.009917539544403553 
v -0.01278742030262947 1.5490444898605347 0.015107722021639347 
v -0.006655403878539801 1.5490444898605347 0.018449347466230392 
v 0.00003406800169614144 1.5490444898605347 0.01965801976621151 
v 0.006653857883065939 1.5490444898605347 0.018449347466230392 
v 0.006653857883065939 -1.0859589576721191 0.018449347466230392 
v 0.012785874307155609 1.5490444898605347 0.015107722021639347 
v 0.006653857883065939 -1.2463899850845337 0.018449347466230392 
v 0.026095135137438774 -1.2494169473648071 0.03103376366198063 
v 0.0469997376203537 -1.549090027809143 0.055704910308122635 
v 0.034666020423173904 -1.2494169473648071 0.020297905430197716 
v 0.06288722902536392 -1.549090027809143 0.036366142332553864 
v 0.04037994518876076 -1.2494169473648071 0.007073603104799986 
v 0.07131875306367874 -1.549090027809143 0.012619278393685818 
v 0.04037994518876076 -1.2494169473648071 -0.007074978202581406 
v 0.07131875306367874 -1.549090027809143 -0.012620653957128525 
v 0.018917890265583992 -1.2463899850845337 0.0033764864783734083 
v 0.018917890265583992 -1.2463899850845337 -0.003448959905654192 
v 0.018917890265583992 -1.0859589576721191 -0.003448959905654192 
v 0.018917890265583992 -1.0859589576721191 0.0033764864783734083 
v 0.018917890265583992 1.5490444898605347 -0.003448959905654192 
v 0.018917890265583992 1.5490444898605347 0.0033764864783734083 
v 0.017593931406736374 -1.0859589576721191 0.009917539544403553 
v 0.017593931406736374 1.5490444898605347 0.009917539544403553 
v 0.017593931406736374 -1.2463899850845337 0.009917539544403553 
v 0.012785874307155609 -1.2463899850845337 0.015107722021639347 
v 0.012785874307155609 -1.0859589576721191 0.015107722021639347 
vn 0.789506196975708 0.4609057903289795 -0.405272513628006 
vn 0.27523189783096313 0.8959391117095947 -0.34862664341926575 
vn 0.7039338946342468 0.7066034078598022 -0.07203252613544464 
vn 0.3890480697154999 0.8997973203659058 0.1975002884864807 
vn 0.8880335092544556 0.45099303126335144 0.08945280313491821 
vn 0.3028828799724579 0.44904232025146484 -0.8406086564064026 
vn -0.003776367986574769 0.7140141725540161 -0.7001210451126099 
vn -0.27523189783096313 0.8959391117095947 -0.34862664341926575 
vn -0.29658374190330505 0.4532274603843689 -0.8406086564064026 
vn -0.7914022207260132 0.4576425850391388 -0.405272513628006 
vn -0.7039338946342468 0.7066034078598022 -0.07203252613544464 
vn -0.3890480697154999 0.8997973203659058 0.1975002884864807 
vn -0.18514561653137207 0.8353798389434814 0.5175535082817078 
vn 0.2316809445619583 0.7130406498908997 0.661737859249115 
vn -0.0018840150441974401 0.454570472240448 0.8907088041305542 
vn -0.8897362351417542 0.44762447476387024 0.08945280313491821 
vn -0.5483794808387756 0.45248377323150635 0.7032341957092285 
vn 0.5483794808387756 0.45248377323150635 0.7032341957092285 
vn -1.1273688349500675e-14 0.10901768505573273 0.9940398335456848 
vn 0.0018846261082217097 0.6922772526741028 0.7216291427612305 
vn 0.24570712447166443 0.6928209662437439 0.677958071231842 
vn 0.0018835372757166624 0.6535061001777649 0.7569189071655273 
vn 0.339211642742157 0.10388239473104477 0.9349566102027893 
vn -0.339211642742157 0.10388239473104477 0.9349566102027893 
vn -0.24925455451011658 0.6915526390075684 0.677958071231842 
vn -0.6443989276885986 0.10873721539974213 0.7569189071655273 
vn -0.4705416262149811 0.689360499382019 0.5507928133010864 
vn -0.8603277802467346 0.1053394302725792 0.4987381398677826 
vn -0.6301789879798889 0.6874871253967285 0.36088213324546814 
vn -0.9783341288566589 0.1016889289021492 0.18033768236637115 
vn -0.7098654508590698 0.6925088167190552 0.12854042649269104 
vn -0.9779230356216431 0.10556935518980026 -0.18033768236637115 
vn -0.7098654508590698 0.6925088167190552 -0.12854042649269104 
vn -0.8598421812057495 0.10923239588737488 -0.4987381398677826 
vn -0.6266531944274902 0.6907024383544922 -0.36088213324546814 
vn -0.6443318724632263 0.10913395881652832 -0.7569189071655273 
vn -0.4664474427700043 0.6921373605728149 -0.5507928133010864 
vn -0.33797767758369446 0.10782938450574875 -0.9349566102027893 
vn -0.24647986888885498 0.6925464272499084 -0.677958071231842 
vn -0.0018897876143455505 0.10465624928474426 -0.9945066571235657 
vn -7.15897339239463e-14 0.6922798156738281 -0.7216291427612305 
vn 0.33910682797431946 0.1042240560054779 -0.9349566102027893 
vn 0.25003746151924133 0.6912699341773987 -0.677958071231842 
vn 0.6449524760246277 0.10540429502725601 -0.7569189071655273 
vn 0.4664474427700043 0.6921373605728149 -0.5507928133010864 
vn 0.8603099584579468 0.10548480600118637 -0.4987381398677826 
vn 0.6266531944274902 0.6907024383544922 -0.36088213324546814 
vn 0.9779230356216431 0.10556935518980026 -0.18033768236637115 
vn 0.712497353553772 0.6898006200790405 -0.12854042649269104 
vn 0.7540186643600464 0.6513170003890991 -0.08510008454322815 
vn 0.6654080152511597 0.6600694060325623 -0.34862664341926575 
vn 0.4717249274253845 0.6486309766769409 -0.5972883701324463 
vn 0.2528666853904724 0.6511864066123962 -0.715552031993866 
vn -0.001890474813990295 0.6535060405731201 -0.7569189071655273 
vn -0.25638407468795776 0.6498095989227295 -0.715552031993866 
vn -0.46866464614868164 0.6508456468582153 -0.5972883701324463 
vn -0.6654080152511597 0.6600694060325623 -0.34862664341926575 
vn -0.7564814686775208 0.6484549045562744 -0.08510008454322815 
vn -0.7564814686775208 0.6484549045562744 0.08510008454322815 
vn -0.6654080152511597 0.6600694060325623 0.34862664341926575 
vn -0.47263914346694946 0.647965133190155 0.5972883701324463 
vn -0.2542092502117157 0.6506634950637817 0.715552031993866 
vn 0 0 1 
vn -0.33423182368278503 0.003763672662898898 0.9424833655357361 
vn -0.6163880825042725 -1.2748329681396692e-13 0.7874425053596497 
vn -0.8897055387496948 0.003772077150642872 0.456519216299057 
vn -0.995171308517456 -2.0582442542861623e-13 0.0981530249118805 
vn -0.995171308517456 -2.0582442542861623e-13 -0.0981530249118805 
vn -0.8897135257720947 -1.84013327036818e-13 -0.456519216299057 
vn -0.6163880825042725 -1.2748329681396692e-13 -0.7874425053596497 
vn -0.3342530131340027 -6.913125128772679e-14 -0.9424833655357361 
vn 2.0682311115474694e-13 4.2775797696334704e-26 -1 
vn 0.33836790919303894 0 -0.9410139322280884 
vn 0.612941563129425 0 -0.790128231048584 
vn 0.8897135257720947 0 -0.456519216299057 
vn 0.995171308517456 0 -0.0981530249118805 
vn 0.789506196975708 0.4609057903289795 -0.405272513628006 
vn 0.7039338946342468 0.7066034078598022 -0.07203252613544464 
vn 0.27523189783096313 0.8959391117095947 -0.34862664341926575 
vn 0.3028828799724579 0.44904232025146484 -0.8406086564064026 
vn -0.003776367986574769 0.7140141725540161 -0.7001210451126099 
vn -0.29658374190330505 0.4532274603843689 -0.8406086564064026 
vn -0.27523189783096313 0.8959391117095947 -0.34862664341926575 
vn -0.7914022207260132 0.4576425850391388 -0.405272513628006 
vn -0.7039338946342468 0.7066034078598022 -0.07203252613544464 
vn -0.8897362351417542 0.44762447476387024 0.08945280313491821 
vn -0.3890480697154999 0.8997973203659058 0.1975002884864807 
vn -0.5483794808387756 0.45248377323150635 0.7032341957092285 
vn -0.18514561653137207 0.8353798389434814 0.5175535082817078 
vn -0.0018840150441974401 0.454570472240448 0.8907088041305542 
vn 0.2316809445619583 0.7130406498908997 0.661737859249115 
vn 0.3342530131340027 0 0.9424833655357361 
vn 0.5483794808387756 0.45248377323150635 0.7032341957092285 
vn 0.2542092502117157 0.6506634950637817 0.715552031993866 
vn 0.4674207270145416 0.6914803981781006 0.5507928133010864 
vn 0.6450150012969971 0.10502085834741592 0.7569189071655273 
vn 0.6273941397666931 0.6900294423103333 0.36088213324546814 
vn 0.8603277802467346 0.1053394302725792 0.4987381398677826 
vn 0.712497353553772 0.6898006200790405 0.12854042649269104 
vn 0.977936863899231 0.10544095188379288 0.18033768236637115 
vn 0.712497353553772 0.6898006200790405 -0.12854042649269104 
vn 0.9779230356216431 0.10556935518980026 -0.18033768236637115 
vn 0.7540186643600464 0.6513170003890991 0.08510008454322815 
vn 0.7540186643600464 0.6513170003890991 -0.08510008454322815 
vn 0.995171308517456 0 -0.0981530249118805 
vn 0.995171308517456 0 0.0981530249118805 
vn 0.7039338946342468 0.7066034078598022 -0.07203252613544464 
vn 0.8880335092544556 0.45099303126335144 0.08945280313491821 
vn 0.8897135257720947 0 0.456519216299057 
vn 0.3890480697154999 0.8997973203659058 0.1975002884864807 
vn 0.6654080152511597 0.6600694060325623 0.34862664341926575 
vn 0.46652358770370483 0.6523820161819458 0.5972883701324463 
vn 0.612941563129425 0 0.790128231048584 
s on 
f 1//1 2//2 3//3 
f 2//2 4//4 3//3 
f 3//3 4//4 5//5 
f 4//4 5//5 5//5 
f 5//5 5//5 6//6 
f 5//5 6//6 6//6 
f 6//6 6//6 2//2 
f 6//6 7//7 2//2 
f 2//2 7//7 8//8 
f 7//7 9//9 8//8 
f 8//8 9//9 9//9 
f 9//9 10//10 9//9 
f 9//9 10//10 10//10 
f 10//10 11//11 10//10 
f 10//10 11//11 8//8 
f 11//11 12//12 8//8 
f 8//8 12//12 2//2 
f 12//12 12//12 2//2 
f 2//2 12//12 4//4 
f 12//12 13//13 4//4 
f 4//4 13//13 14//14 
f 13//13 15//15 14//14 
f 14//14 15//15 15//15 
f 15//15 11//11 15//15 
f 15//15 11//11 11//11 
f 11//11 16//16 11//11 
f 11//11 16//16 12//12 
f 16//16 12//12 12//12 
f 12//12 12//12 13//13 
f 12//12 13//13 13//13 
f 13//13 13//13 17//17 
f 13//13 12//12 17//17 
f 17//17 12//12 12//12 
f 12//12 4//4 12//12 
f 12//12 4//4 4//4 
f 4//4 14//14 4//4 
f 4//4 14//14 18//18 
f 14//14 18//18 18//18 
f 18//18 18//18 19//19 
f 18//18 19//19 19//19 
f 19//19 19//19 20//20 
f 19//19 21//21 20//20 
f 20//20 21//21 22//22 
f 21//21 22//22 22//22 
f 22//22 22//22 19//19 
f 22//22 19//19 19//19 
f 19//19 19//19 21//21 
f 19//19 23//23 21//21 
f 21//21 23//23 23//23 
f 23//23 19//19 23//23 
f 23//23 19//19 19//19 
f 19//19 20//20 19//19 
f 19//19 20//20 24//24 
f 20//20 25//25 24//24 
f 24//24 25//25 26//26 
f 25//25 27//27 26//26 
f 26//26 27//27 28//28 
f 27//27 29//29 28//28 
f 28//28 29//29 30//30 
f 29//29 31//31 30//30 
f 30//30 31//31 32//32 
f 31//31 33//33 32//32 
f 32//32 33//33 34//34 
f 33//33 35//35 34//34 
f 34//34 35//35 36//36 
f 35//35 37//37 36//36 
f 36//36 37//37 38//38 
f 37//37 39//39 38//38 
f 38//38 39//39 40//40 
f 39//39 41//41 40//40 
f 40//40 41//41 42//42 
f 41//41 43//43 42//42 
f 42//42 43//43 44//44 
f 43//43 45//45 44//44 
f 44//44 45//45 46//46 
f 45//45 47//47 46//46 
f 46//46 47//47 48//48 
f 47//47 47//47 48//48 
f 48//48 47//47 49//49 
f 47//47 47//47 49//49 
f 49//49 47//47 50//50 
f 47//47 47//47 50//50 
f 50//50 47//47 51//51 
f 47//47 45//45 51//51 
f 51//51 45//45 52//52 
f 45//45 43//43 52//52 
f 52//52 43//43 53//53 
f 43//43 41//41 53//53 
f 53//53 41//41 54//54 
f 41//41 39//39 54//54 
f 54//54 39//39 55//55 
f 39//39 37//37 55//55 
f 55//55 37//37 56//56 
f 37//37 35//35 56//56 
f 56//56 35//35 57//57 
f 35//35 33//33 57//57 
f 57//57 33//33 58//58 
f 33//33 31//31 58//58 
f 58//58 31//31 59//59 
f 31//31 29//29 59//59 
f 59//59 29//29 60//60 
f 29//29 27//27 60//60 
f 60//60 27//27 61//61 
f 27//27 25//25 61//61 
f 61//61 25//25 62//62 
f 25//25 20//20 62//62 
f 62//62 20//20 62//62 
f 20//20 22//22 62//62 
f 62//62 22//22 62//62 
f 22//22 63//63 62//62 
f 62//62 63//63 62//62 
f 63//63 64//64 62//62 
f 62//62 64//64 61//61 
f 64//64 65//65 61//61 
f 61//61 65//65 60//60 
f 65//65 66//66 60//60 
f 60//60 66//66 59//59 
f 66//66 67//67 59//59 
f 59//59 67//67 58//58 
f 67//67 68//68 58//58 
f 58//58 68//68 57//57 
f 68//68 69//69 57//57 
f 57//57 69//69 56//56 
f 69//69 70//70 56//56 
f 56//56 70//70 55//55 
f 70//70 71//71 55//55 
f 55//55 71//71 54//54 
f 71//71 72//72 54//54 
f 54//54 72//72 53//53 
f 72//72 73//73 53//53 
f 53//53 73//73 52//52 
f 73//73 74//74 52//52 
f 52//52 74//74 51//51 
f 74//74 75//75 51//51 
f 51//51 75//75 50//50 
f 75//75 75//75 50//50 
f 50//50 75//75 76//76 
f 75//75 77//77 76//76 
f 76//76 77//77 78//78 
f 77//77 78//78 78//78 
f 78//78 78//78 77//77 
f 78//78 77//77 77//77 
f 77//77 77//77 79//79 
f 77//77 75//75 79//79 
f 79//79 75//75 79//79 
f 75//75 74//74 79//79 
f 79//79 74//74 80//80 
f 74//74 73//73 80//80 
f 80//80 73//73 81//81 
f 73//73 72//72 81//81 
f 81//81 72//72 82//82 
f 72//72 71//71 82//82 
f 82//82 71//71 83//83 
f 71//71 70//70 83//83 
f 83//83 70//70 84//84 
f 70//70 69//69 84//84 
f 84//84 69//69 85//85 
f 69//69 68//68 85//85 
f 85//85 68//68 86//86 
f 68//68 67//67 86//86 
f 86//86 67//67 87//87 
f 67//67 66//66 87//87 
f 87//87 66//66 88//88 
f 66//66 65//65 88//88 
f 88//88 65//65 89//89 
f 65//65 64//64 89//89 
f 89//89 64//64 90//90 
f 64//64 63//63 90//90 
f 90//90 63//63 91//91 
f 63//63 92//92 91//91 
f 91//91 92//92 93//93 
f 92//92 93//93 93//93 
f 93//93 93//93 63//63 
f 93//93 63//63 63//63 
f 63//63 63//63 92//92 
f 63//63 22//22 92//92 
f 92//92 22//22 94//94 
f 22//22 21//21 94//94 
f 94//94 21//21 95//95 
f 21//21 23//23 95//95 
f 95//95 23//23 95//95 
f 23//23 96//96 95//95 
f 95//95 96//96 97//97 
f 96//96 98//98 97//97 
f 97//97 98//98 99//99 
f 98//98 100//100 99//99 
f 99//99 100//100 101//101 
f 100//100 102//102 101//101 
f 101//101 102//102 102//102 
f 102//102 99//99 102//102 
f 102//102 99//99 99//99 
f 99//99 101//101 99//99 
f 99//99 101//101 103//103 
f 101//101 104//104 103//103 
f 103//103 104//104 103//103 
f 104//104 105//105 103//103 
f 103//103 105//105 106//106 
f 105//105 107//107 106//106 
f 106//106 107//107 106//106 
f 107//107 108//108 106//106 
f 106//106 108//108 109//109 
f 108//108 110//110 109//109 
f 109//109 110//110 110//110 
f 110//110 109//109 110//110 
f 110//110 109//109 109//109 
f 109//109 111//111 109//109 
f 109//109 111//111 106//106 
f 111//111 111//111 106//106 
f 106//106 111//111 103//103 
f 111//111 111//111 103//103 
f 103//103 111//111 99//99 
f 111//111 111//111 99//99 
f 99//99 111//111 97//97 
f 111//111 112//112 97//97 
f 97//97 112//112 95//95 
f 112//112 112//112 95//95 
f 95//95 112//112 94//94 
f 112//112 113//113 94//94 
f 94//94 113//113 92//92 
f 113//113 113//113 92//92 
f 92//92 113//113 93//93 
f 113//113 113//113 93//93 
f 93//93 113//113 110//110 
f 113//113 113//113 110//110 
f 110//110 113//113 109//109 
f 113//113 112//112 109//109 
f 109//109 112//112 111//111 

