mtllib model_547.mtl
o model_547
v 0.8765599727630615 0 5.411439418792725 
v 2.019901990890503 0 4.388803958892822 
v -4.840149879455566 0 -2.4287641048431396 
v 3.010798454284668 0 3.280949115753174 
v 3.773026466369629 0 2.002655267715454 
v 4.382808685302734 0 0.5539219975471497 
v 4.687699794769287 0 -0.89481121301651 
v 4.840145587921143 0 -2.4287641048431396 
v 4.687699794769287 0 -3.962716817855835 
v 4.382808685302734 0 -5.411449909210205 
vn -1.0341130485562108e-13 0.999997615814209 0.002184694167226553 
vn -1.0341130485562108e-13 0.999997615814209 0.002184694167226553 
vn -1.0341130485562108e-13 0.999997615814209 0.002184694167226553 
vn -1.0341130485562108e-13 0.999997615814209 -0.002184694167226553 
vn -1.0341130485562108e-13 0.999997615814209 0.002184694167226553 
vn -1.0341130485562108e-13 0.999997615814209 0.002184694167226553 
vn -1.0341130485562108e-13 0.999997615814209 0.002184694167226553 
vn -1.0341130485562108e-13 0.999997615814209 0.002184694167226553 
vn -1.0341130485562108e-13 0.999997615814209 0.002184694167226553 
vn -1.0341130485562108e-13 0.999997615814209 0.002184694167226553 
vt 0.024478083476424217 0.6545084118843079 
vt 0.006165302824229002 0.5782074928283691 
vt 0.4999999403953552 0.499995619058609 
vt 0 0.499995619058609 
vt 0.006165302824229002 0.4217837452888489 
vt 0.024478083476424217 0.34548282623291016 
vt 0.054511040449142456 0.2730037569999695 
vt 0.09547062963247299 0.206121027469635 
vt 0.14644119143486023 0.1464725285768509 
vt 0.20607981085777283 0.09549149870872498 
s on 
f 1/1/1 2/2/2 3/3/3 
f 2/2/2 4/4/4 3/3/3 
f 3/3/3 4/4/4 3/3/3 
f 4/4/4 5/5/5 3/3/3 
f 3/3/3 5/5/5 3/3/3 
f 5/5/5 6/6/6 3/3/3 
f 3/3/3 6/6/6 3/3/3 
f 6/6/6 7/7/7 3/3/3 
f 3/3/3 7/7/7 3/3/3 
f 7/7/7 8/8/8 3/3/3 
f 3/3/3 8/8/8 3/3/3 
f 8/8/8 9/9/9 3/3/3 
f 3/3/3 9/9/9 10/10/10 

