mtllib model_304.mtl
o model_304
v 0.1696823537349701 -0.1098472848534584 0.10320563614368439 
v 0.16649529337882996 -0.09741999208927155 0.10450367629528046 
v 0.14196428656578064 -0.10827862471342087 0.1136055737733841 
v 0.14006450772285461 -0.09572061151266098 0.11513819545507431 
v 0.11581379175186157 -0.09354191273450851 0.1229889765381813 
v 0.1381024420261383 -0.08253513276576996 0.11649879068136215 
v 0.11492100358009338 -0.08021699637174606 0.12419317662715912 
v 0.11656124889850616 -0.10618707537651062 0.12175349146127701 
v 0.16326671838760376 -0.08433037996292114 0.10556712746620178 
vn 0.4427962303161621 0.007520103361457586 0.8965907096862793 
vn 0.45401227474212646 0.022598925977945328 0.8907088041305542 
vn 0.3246719539165497 -0.05979221314191818 0.9439348578453064 
vn 0.33950531482696533 -0.04501292482018471 0.9395264387130737 
vn 0.3404121994972229 -0.03754400834441185 0.9395264387130737 
vn 0.3581357002258301 -0.022531989961862564 0.933397650718689 
vn 0.31967785954475403 -0.03750515356659889 0.946783721446991 
vn 0.3673195242881775 -0.0524672195315361 0.9286137819290161 
vn 0.47176679968833923 0.04516300931572914 0.8805659413337708 
s on 
f 1//1 2//2 3//3 
f 2//2 4//4 3//3 
f 3//3 4//4 5//5 
f 4//4 6//6 5//5 
f 5//5 6//6 7//7 
f 6//6 7//7 7//7 
f 7//7 7//7 5//5 
f 7//7 5//5 5//5 
f 5//5 5//5 3//3 
f 5//5 8//8 3//3 
f 3//3 8//8 8//8 
f 8//8 4//4 8//8 
f 8//8 4//4 4//4 
f 4//4 2//2 4//4 
f 4//4 2//2 6//6 
f 2//2 9//9 6//6 

