mtllib model_293.mtl
o model_293
v -0.07637029886245728 -0.1098472848534584 -0.17327171564102173 
v -0.07295867055654526 -0.09741999208927155 -0.17280878126621246 
v -0.04714959114789963 -0.10827862471342087 -0.16849561035633087 
v -0.04473238065838814 -0.09572061151266098 -0.16887950897216797 
v -0.019795337691903114 -0.09354191273450851 -0.16360661387443542 
v -0.042345769703388214 -0.08253513276576996 -0.16908274590969086 
v -0.01841844618320465 -0.08021699637174606 -0.16422761976718903 
v -0.021065138280391693 -0.10618707537651062 -0.16290657222270966 
v -0.06962352991104126 -0.08433037996292114 -0.17212001979351044 
vn 0.0650511160492897 0.007603385020047426 -0.9978529810905457 
vn 0.047453347593545914 0.022245215252041817 -0.9986256957054138 
vn 0.19055859744548798 -0.05953267216682434 -0.97986900806427 
vn 0.17243877053260803 -0.04489956423640251 -0.9839963912963867 
vn 0.1697654128074646 -0.03763608634471893 -0.9847655892372131 
vn 0.15500640869140625 -0.022634243592619896 -0.9876541495323181 
vn 0.19451522827148438 -0.044950466603040695 -0.97986900806427 
vn 0.14314648509025574 -0.05210106074810028 -0.9883291721343994 
vn 0.03367573395371437 0.045705076307058334 -0.9983872175216675 
s on 
f 1//1 2//2 3//3 
f 2//2 4//4 3//3 
f 3//3 4//4 5//5 
f 4//4 6//6 5//5 
f 5//5 6//6 7//7 
f 6//6 7//7 7//7 
f 7//7 7//7 5//5 
f 7//7 5//5 5//5 
f 5//5 5//5 3//3 
f 5//5 8//8 3//3 
f 3//3 8//8 8//8 
f 8//8 4//4 8//8 
f 8//8 4//4 4//4 
f 4//4 2//2 4//4 
f 4//4 2//2 6//6 
f 2//2 9//9 6//6 

