mtllib model_548.mtl
o model_548
v -5.689929962158203 0 3.010798454284668 
v -4.435457229614258 0 3.773026466369629 
v 0.04480279982089996 0 -4.840149879455566 
v -3.0017740726470947 0 4.382808685302734 
v -1.4784855842590332 0 4.687699794769287 
v 0.04480279982089996 0 4.840145587921143 
v 1.4784859418869019 0 4.687699794769287 
v 3.001774311065674 0 4.382808685302734 
v 4.435457706451416 0 3.773026466369629 
v 5.689930438995361 0 3.010798454284668 
vn -1.0341130485562108e-13 0.999997615814209 -0.002184694167226553 
vn -1.0341130485562108e-13 0.999997615814209 -0.002184694167226553 
vn -1.0341130485562108e-13 0.999997615814209 -0.002184694167226553 
vn -1.0341130485562108e-13 0.999997615814209 0.002184694167226553 
vn -1.0341130485562108e-13 0.999997615814209 0.002184694167226553 
vn -1.0341130485562108e-13 0.999997615814209 -0.002184694167226553 
vn -1.0341130485562108e-13 0.999997615814209 -0.002184694167226553 
vn -1.0341130485562108e-13 0.999997615814209 0.002184694167226553 
vn -1.0341130485562108e-13 0.999997615814209 -0.002184694167226553 
vn -1.0341130485562108e-13 0.999997615814209 -0.002184694167226553 
vt 0.024478083476424217 0.6545084118843079 
vt 0.006165302824229002 0.5782074928283691 
vt 0.4999999403953552 0.499995619058609 
vt 0 0.499995619058609 
vt 0.006165302824229002 0.4217837452888489 
vt 0.024478083476424217 0.34548282623291016 
vt 0.054511040449142456 0.2730037569999695 
vt 0.09547062963247299 0.206121027469635 
vt 0.14644119143486023 0.1464725285768509 
vt 0.20607981085777283 0.09549149870872498 
s on 
f 1/1/1 2/2/2 3/3/3 
f 2/2/2 4/4/4 3/3/3 
f 3/3/3 4/4/4 3/3/3 
f 4/4/4 5/5/5 3/3/3 
f 3/3/3 5/5/5 3/3/3 
f 5/5/5 6/6/6 3/3/3 
f 3/3/3 6/6/6 3/3/3 
f 6/6/6 7/7/7 3/3/3 
f 3/3/3 7/7/7 3/3/3 
f 7/7/7 8/8/8 3/3/3 
f 3/3/3 8/8/8 3/3/3 
f 8/8/8 9/9/9 3/3/3 
f 3/3/3 9/9/9 10/10/10 

