mtllib model_503.mtl
o model_503
v -0.00016436399891972542 0.03774428367614746 -0.00016162199608515948 
v -0.00016436399891972542 0.018720539286732674 0.03282654285430908 
v 0.02836357243359089 0.018720539286732674 0.016332460567355156 
v -0.00016436399891972542 0.03774428367614746 -0.00016162199608515948 
v 0.02836357243359089 0.018720539286732674 -0.01620991714298725 
v 0.02836357243359089 0.018720539286732674 0.016332460567355156 
v -0.00016436399891972542 0.03774428367614746 -0.00016162199608515948 
v 0.02836357243359089 0.018720539286732674 -0.01620991714298725 
v -0.00016436399891972542 0.018720539286732674 -0.03270399942994118 
v -0.00016436399891972542 0.03774428367614746 -0.00016162199608515948 
v -0.028246551752090454 0.018720539286732674 -0.01620991714298725 
v -0.00016436399891972542 0.018720539286732674 -0.03270399942994118 
v -0.00016436399891972542 0.03774428367614746 -0.00016162199608515948 
v -0.028246551752090454 0.018720539286732674 -0.01620991714298725 
v -0.028246551752090454 0.018720539286732674 0.016332460567355156 
v -0.00016436399891972542 0.03774428367614746 -0.00016162199608515948 
v -0.00016436399891972542 0.018720539286732674 0.03282654285430908 
v -0.028246551752090454 0.018720539286732674 0.016332460567355156 
v -0.00016436399891972542 -0.03775620087981224 -0.00016162199608515948 
v 0.02836357243359089 -0.018732456490397453 0.016332460567355156 
v -0.00016436399891972542 -0.018732456490397453 0.03282654285430908 
v -0.00016436399891972542 -0.03775620087981224 -0.00016162199608515948 
v 0.02836357243359089 -0.018732456490397453 0.016332460567355156 
v 0.02836357243359089 -0.018732456490397453 -0.01620991714298725 
v -0.00016436399891972542 -0.03775620087981224 -0.00016162199608515948 
v -0.00016436399891972542 -0.018732456490397453 -0.03270399942994118 
v 0.02836357243359089 -0.018732456490397453 -0.01620991714298725 
v -0.00016436399891972542 -0.03775620087981224 -0.00016162199608515948 
v -0.00016436399891972542 -0.018732456490397453 -0.03270399942994118 
v -0.028246551752090454 -0.018732456490397453 -0.01620991714298725 
v -0.00016436399891972542 -0.03775620087981224 -0.00016162199608515948 
v -0.028246551752090454 -0.018732456490397453 0.016332460567355156 
v -0.028246551752090454 -0.018732456490397453 -0.01620991714298725 
v -0.00016436399891972542 -0.03775620087981224 -0.00016162199608515948 
v -0.028246551752090454 -0.018732456490397453 0.016332460567355156 
v -0.00016436399891972542 -0.018732456490397453 0.03282654285430908 
v -0.00016436399891972542 -0.018732456490397453 0.03282654285430908 
v 0.02836357243359089 -0.018732456490397453 0.016332460567355156 
v -0.00016436399891972542 0.018720539286732674 0.03282654285430908 
v 0.02836357243359089 0.018720539286732674 0.016332460567355156 
v 0.02836357243359089 -0.018732456490397453 0.016332460567355156 
v 0.02836357243359089 -0.018732456490397453 -0.01620991714298725 
v 0.02836357243359089 0.018720539286732674 0.016332460567355156 
v 0.02836357243359089 0.018720539286732674 -0.01620991714298725 
v 0.02836357243359089 -0.018732456490397453 -0.01620991714298725 
v -0.00016436399891972542 -0.018732456490397453 -0.03270399942994118 
v 0.02836357243359089 0.018720539286732674 -0.01620991714298725 
v -0.00016436399891972542 0.018720539286732674 -0.03270399942994118 
v -0.00016436399891972542 -0.018732456490397453 -0.03270399942994118 
v -0.028246551752090454 -0.018732456490397453 -0.01620991714298725 
v -0.00016436399891972542 0.018720539286732674 -0.03270399942994118 
v -0.028246551752090454 0.018720539286732674 -0.01620991714298725 
v -0.028246551752090454 -0.018732456490397453 -0.01620991714298725 
v -0.028246551752090454 -0.018732456490397453 0.016332460567355156 
v -0.028246551752090454 0.018720539286732674 -0.01620991714298725 
v -0.028246551752090454 0.018720539286732674 0.016332460567355156 
v -0.028246551752090454 -0.018732456490397453 0.016332460567355156 
v -0.00016436399891972542 -0.018732456490397453 0.03282654285430908 
v -0.028246551752090454 0.018720539286732674 0.016332460567355156 
v -0.00016436399891972542 0.018720539286732674 0.03282654285430908 
vn 0.2797369062900543 0.8316549062728882 0.4796847105026245 
vn 0.2797369062900543 0.8316549062728882 0.4796847105026245 
vn 0.2797369062900543 0.8316549062728882 0.4796847105026245 
vn 0.5555689334869385 0.8314676284790039 0.002184694167226553 
vn 0.5555689334869385 0.8314676284790039 0.002184694167226553 
vn 0.5555689334869385 0.8314676284790039 0.002184694167226553 
vn 0.2783166170120239 0.8321312665939331 -0.4796847105026245 
vn 0.2783166170120239 0.8321312665939331 -0.4796847105026245 
vn 0.2783166170120239 0.8321312665939331 -0.4796847105026245 
vn -0.2783166170120239 0.8321312665939331 -0.4796847105026245 
vn -0.2783166170120239 0.8321312665939331 -0.4796847105026245 
vn -0.2783166170120239 0.8321312665939331 -0.4796847105026245 
vn -0.5555689334869385 0.8314676284790039 0.002184694167226553 
vn -0.5555689334869385 0.8314676284790039 0.002184694167226553 
vn -0.5555689334869385 0.8314676284790039 0.002184694167226553 
vn -0.2761601507663727 0.832849383354187 0.4796847105026245 
vn -0.2761601507663727 0.832849383354187 0.4796847105026245 
vn -0.2761601507663727 0.832849383354187 0.4796847105026245 
vn 0.2797369062900543 -0.8316549062728882 0.4796847105026245 
vn 0.2797369062900543 -0.8316549062728882 0.4796847105026245 
vn 0.2797369062900543 -0.8316549062728882 0.4796847105026245 
vn 0.5555689334869385 -0.8314676284790039 0.002184694167226553 
vn 0.5555689334869385 -0.8314676284790039 0.002184694167226553 
vn 0.5555689334869385 -0.8314676284790039 0.002184694167226553 
vn 0.2783166170120239 -0.8321312665939331 -0.4796847105026245 
vn 0.2783166170120239 -0.8321312665939331 -0.4796847105026245 
vn 0.2783166170120239 -0.8321312665939331 -0.4796847105026245 
vn -0.2783166170120239 -0.8321312665939331 -0.4796847105026245 
vn -0.2783166170120239 -0.8321312665939331 -0.4796847105026245 
vn -0.2783166170120239 -0.8321312665939331 -0.4796847105026245 
vn -0.5555689334869385 -0.8314676284790039 0.002184694167226553 
vn -0.5555689334869385 -0.8314676284790039 0.002184694167226553 
vn -0.5555689334869385 -0.8314676284790039 0.002184694167226553 
vn -0.2761601507663727 -0.832849383354187 0.4796847105026245 
vn -0.2761601507663727 -0.832849383354187 0.4796847105026245 
vn -0.2761601507663727 -0.832849383354187 0.4796847105026245 
vn 0.5006305575370789 0 0.865661084651947 
vn 0.5006305575370789 0 0.865661084651947 
vn 0.5006305575370789 0 0.865661084651947 
vn 0.5006305575370789 0 0.865661084651947 
vn 0.999997615814209 0 0.002184694167226553 
vn 0.999997615814209 0 0.002184694167226553 
vn 0.999997615814209 0 0.002184694167226553 
vn 0.999997615814209 0 0.002184694167226553 
vn 0.5006305575370789 0 -0.865661084651947 
vn 0.5006305575370789 0 -0.865661084651947 
vn 0.5006305575370789 0 -0.865661084651947 
vn 0.5006305575370789 0 -0.865661084651947 
vn -0.5006305575370789 -1.0354196476993274e-13 -0.865661084651947 
vn -0.5006305575370789 -1.0354196476993274e-13 -0.865661084651947 
vn -0.5006305575370789 -1.0354196476993274e-13 -0.865661084651947 
vn -0.5006305575370789 -1.0354196476993274e-13 -0.865661084651947 
vn -0.999997615814209 -2.0682260971124217e-13 0.002184694167226553 
vn -0.999997615814209 -2.0682260971124217e-13 0.002184694167226553 
vn -0.999997615814209 -2.0682260971124217e-13 0.002184694167226553 
vn -0.999997615814209 -2.0682260971124217e-13 0.002184694167226553 
vn -0.5006305575370789 -1.0354196476993274e-13 0.865661084651947 
vn -0.5006305575370789 -1.0354196476993274e-13 0.865661084651947 
vn -0.5006305575370789 -1.0354196476993274e-13 0.865661084651947 
vn -0.5006305575370789 -1.0354196476993274e-13 0.865661084651947 
s on 
f 1//1 2//2 3//3 
f 2//2 3//3 3//3 
f 3//3 3//3 4//4 
f 3//3 4//4 4//4 
f 4//4 4//4 5//5 
f 4//4 6//6 5//5 
f 5//5 6//6 6//6 
f 6//6 7//7 6//6 
f 6//6 7//7 7//7 
f 7//7 8//8 7//7 
f 7//7 8//8 9//9 
f 8//8 9//9 9//9 
f 9//9 9//9 10//10 
f 9//9 10//10 10//10 
f 10//10 10//10 11//11 
f 10//10 12//12 11//11 
f 11//11 12//12 12//12 
f 12//12 13//13 12//12 
f 12//12 13//13 13//13 
f 13//13 14//14 13//13 
f 13//13 14//14 15//15 
f 14//14 15//15 15//15 
f 15//15 15//15 16//16 
f 15//15 16//16 16//16 
f 16//16 16//16 17//17 
f 16//16 18//18 17//17 
f 17//17 18//18 18//18 
f 18//18 19//19 18//18 
f 18//18 19//19 19//19 
f 19//19 20//20 19//19 
f 19//19 20//20 21//21 
f 20//20 21//21 21//21 
f 21//21 21//21 22//22 
f 21//21 22//22 22//22 
f 22//22 22//22 23//23 
f 22//22 24//24 23//23 
f 23//23 24//24 24//24 
f 24//24 25//25 24//24 
f 24//24 25//25 25//25 
f 25//25 26//26 25//25 
f 25//25 26//26 27//27 
f 26//26 27//27 27//27 
f 27//27 27//27 28//28 
f 27//27 28//28 28//28 
f 28//28 28//28 29//29 
f 28//28 30//30 29//29 
f 29//29 30//30 30//30 
f 30//30 31//31 30//30 
f 30//30 31//31 31//31 
f 31//31 32//32 31//31 
f 31//31 32//32 33//33 
f 32//32 33//33 33//33 
f 33//33 33//33 34//34 
f 33//33 34//34 34//34 
f 34//34 34//34 35//35 
f 34//34 36//36 35//35 
f 35//35 36//36 36//36 
f 36//36 37//37 36//36 
f 36//36 37//37 37//37 
f 37//37 38//38 37//37 
f 37//37 38//38 39//39 
f 38//38 40//40 39//39 
f 39//39 40//40 40//40 
f 40//40 41//41 40//40 
f 40//40 41//41 41//41 
f 41//41 42//42 41//41 
f 41//41 42//42 43//43 
f 42//42 44//44 43//43 
f 43//43 44//44 44//44 
f 44//44 45//45 44//44 
f 44//44 45//45 45//45 
f 45//45 46//46 45//45 
f 45//45 46//46 47//47 
f 46//46 48//48 47//47 
f 47//47 48//48 48//48 
f 48//48 49//49 48//48 
f 48//48 49//49 49//49 
f 49//49 50//50 49//49 
f 49//49 50//50 51//51 
f 50//50 52//52 51//51 
f 51//51 52//52 52//52 
f 52//52 53//53 52//52 
f 52//52 53//53 53//53 
f 53//53 54//54 53//53 
f 53//53 54//54 55//55 
f 54//54 56//56 55//55 
f 55//55 56//56 56//56 
f 56//56 57//57 56//56 
f 56//56 57//57 57//57 
f 57//57 58//58 57//57 
f 57//57 58//58 59//59 
f 58//58 60//60 59//59 

