mtllib model_305.mtl
o model_305
v 0.2104068249464035 -0.08455020189285278 -0.007628399878740311 
v 0.208653524518013 -0.07212162762880325 -0.004662680439651012 
v 0.1946033388376236 -0.08298259228467941 0.01740558259189129 
v 0.19401414692401886 -0.07042346149682999 0.019783060997724533 
v 0.1794222891330719 -0.06824414432048798 0.04067790508270264 
v 0.1932729184627533 -0.0572398416697979 0.022050242871046066 
v 0.17945080995559692 -0.05491536110639572 0.04218527302145958 
v 0.1792750060558319 -0.0808863565325737 0.03924406319856644 
v 0.2067149132490158 -0.05903295800089836 -0.0018654674058780074 
vn 0.8936370611190796 0.007547071203589439 0.4487268626689911 
vn 0.9010908007621765 0.022621477022767067 0.43303996324539185 
vn 0.8276024460792542 -0.0603087842464447 0.5580654144287109 
vn 0.8382028341293335 -0.04525060951709747 0.5434780716896057 
vn 0.8385756611824036 -0.03771442919969559 0.5434780716896057 
vn 0.8484916687011719 -0.022627273574471474 0.528724730014801 
vn 0.8264907598495483 -0.03771114721894264 0.5616858005523682 
vn 0.8540233969688416 -0.0527484230697155 0.5175535082817078 
vn 0.9076784253120422 0.045240405946969986 0.417220801115036 
s on 
f 1//1 2//2 3//3 
f 2//2 4//4 3//3 
f 3//3 4//4 5//5 
f 4//4 6//6 5//5 
f 5//5 6//6 7//7 
f 6//6 7//7 7//7 
f 7//7 7//7 5//5 
f 7//7 5//5 5//5 
f 5//5 5//5 3//3 
f 5//5 8//8 3//3 
f 3//3 8//8 8//8 
f 8//8 4//4 8//8 
f 8//8 4//4 4//4 
f 4//4 2//2 4//4 
f 4//4 2//2 6//6 
f 2//2 9//9 6//6 

