mtllib model_303.mtl
o model_303
v 0.09060530364513397 -0.1098472848534584 -0.17745158076286316 
v 0.09206582605838776 -0.09741999208927155 -0.17433807253837585 
v 0.10238578170537949 -0.10827862471342087 -0.150294229388237 
v 0.10402284562587738 -0.09572061151266098 -0.14847193658351898 
v 0.11305882781744003 -0.09354191273450851 -0.12464676052331924 
v 0.10546731948852539 -0.08253513276576996 -0.14657674729824066 
v 0.11432676017284393 -0.08021699637174606 -0.1238241195678711 
v 0.11179090291261673 -0.10618707537651062 -0.1253340244293213 
v 0.09328559786081314 -0.08433037996292114 -0.17116206884384155 
vn 0.8731828927993774 0.007557172328233719 -0.48733407258987427 
vn 0.8664565086364746 0.022657480090856552 -0.4987381398677826 
vn 0.927457869052887 -0.06039448454976082 -0.3690181374549866 
vn 0.9217194318771362 -0.045281171798706055 -0.3852050006389618 
vn 0.920364499092102 -0.03776805102825165 -0.3892335295677185 
vn 0.9139155149459839 -0.022641820833086967 -0.405272513628006 
vn 0.9302608370780945 -0.03773035481572151 -0.3649536371231079 
vn 0.9090869426727295 -0.05280826613306999 -0.41324591636657715 
vn 0.8567084670066833 0.045276183634996414 -0.5138099193572998 
s on 
f 1//1 2//2 3//3 
f 2//2 4//4 3//3 
f 3//3 4//4 5//5 
f 4//4 6//6 5//5 
f 5//5 6//6 7//7 
f 6//6 7//7 7//7 
f 7//7 7//7 5//5 
f 7//7 5//5 5//5 
f 5//5 5//5 3//3 
f 5//5 8//8 3//3 
f 3//3 8//8 8//8 
f 8//8 4//4 8//8 
f 8//8 4//4 4//4 
f 4//4 2//2 4//4 
f 4//4 2//2 6//6 
f 2//2 9//9 6//6 

