mtllib model_289.mtl
o model_289
v -0.12589076161384583 -0.1098472848534584 0.15497630834579468 
v -0.12691015005111694 -0.09741999208927155 0.15168708562850952 
v -0.13380596041679382 -0.10827862471342087 0.1264520287513733 
v -0.1351701319217682 -0.09572061151266098 0.12441080063581467 
v -0.1408366858959198 -0.09354191273450851 0.09956707060337067 
v -0.13635441660881042 -0.08253513276576996 0.12233784794807434 
v -0.141961008310318 -0.08021699637174606 0.09857290238142014 
v -0.13966740667819977 -0.10618707537651062 0.10042375326156616 
v -0.12767468392848969 -0.08433037996292114 0.1483767032623291 
vn -0.9326038360595703 0.003770755836740136 0.36088213324546814 
vn -0.927609384059906 0.018852341920137405 0.37307560443878174 
vn -0.9688625931739807 -0.060350578278303146 0.2401314377784729 
vn -0.9666180610656738 -0.041521064937114716 0.25283506512641907 
vn -0.9657993912696838 -0.03393610939383507 0.25706008076667786 
vn -0.9615703225135803 -0.01885923556983471 0.27391019463539124 
vn -0.9708938598632812 -0.041498277336359024 0.23588760197162628 
vn -0.9580720067024231 -0.04901432618498802 0.28230419754981995 
vn -0.9183163046836853 0.04523196816444397 0.3932546079158783 
s on 
f 1//1 2//2 3//3 
f 2//2 4//4 3//3 
f 3//3 4//4 5//5 
f 4//4 6//6 5//5 
f 5//5 6//6 7//7 
f 6//6 7//7 7//7 
f 7//7 7//7 5//5 
f 7//7 5//5 5//5 
f 5//5 5//5 3//3 
f 5//5 8//8 3//3 
f 3//3 8//8 8//8 
f 8//8 4//4 8//8 
f 8//8 4//4 4//4 
f 4//4 2//2 4//4 
f 4//4 2//2 6//6 
f 2//2 9//9 6//6 

