mtllib model_283.mtl
o model_283
v 0.005430129822343588 1.5490444898605347 -0.019488593563437462 
v -0.0015979097224771976 1.5490444898605347 -0.019701575860381126 
v 0.010967373847961426 1.5490444898605347 -0.015796905383467674 
v 0.019486209377646446 1.5490444898605347 -0.005431781988590956 
v 0.01579471305012703 1.5490444898605347 -0.01096931379288435 
v -0.008341988548636436 1.5490444898605347 -0.017784738913178444 
v -0.013950222171843052 1.5490444898605347 -0.013951062224805355 
v -0.019700435921549797 1.5490444898605347 -0.0015981059987097979 
v -0.017783697694540024 1.5490444898605347 -0.00834253616631031 
v -0.019487464800477028 1.5490444898605347 0.005430299788713455 
v -0.01579597033560276 1.5490444898605347 0.010967832058668137 
v -0.005431385710835457 1.5490444898605347 0.019416118040680885 
v 0.00834073219448328 1.5490444898605347 0.017783256247639656 
v 0.017782442271709442 1.5490444898605347 0.008341054432094097 
v 0.013948965817689896 1.5490444898605347 0.013949579559266567 
v -0.010968629270792007 1.5490444898605347 0.015795424580574036 
v 0.0015966538339853287 1.5490444898605347 0.01970009319484234 
v 0.019699180498719215 1.5490444898605347 0.001596624031662941 
v 0.051502835005521774 -1.549090027809143 0.051434412598609924 
v 0.028643958270549774 -1.2494169473648071 0.028645338490605354 
v 0.037020813673734665 -1.2494169473648071 0.017002321779727936 
v 0.013948965817689896 -1.2463899850845337 0.013949579559266567 
v 0.0658428743481636 -1.549090027809143 0.030917145311832428 
v 0.030986638739705086 -1.549090027809143 0.06584619730710983 
v 0.017001548781991005 -1.2494169473648071 0.037022631615400314 
v 0.006140032783150673 -1.549090027809143 0.0726616159081459 
v 0.0034424015320837498 -1.2494169473648071 0.04043034091591835 
v -0.01877756230533123 -1.549090027809143 0.07017682492733002 
v -0.01018773578107357 -1.2494169473648071 0.03886847570538521 
v -0.0414944589138031 -1.549090027809143 0.059385739266872406 
v -0.023533912375569344 -1.2494169473648071 0.03354392573237419 
v -0.05938401445746422 -1.549090027809143 0.04149525240063667 
v -0.03361453488469124 -1.2494169473648071 0.023533770814538002 
v -0.07017453759908676 -1.549090027809143 0.018706178292632103 
v -0.03886781632900238 -1.2494169473648071 0.010186897590756416 
v -0.0726592019200325 -1.549090027809143 -0.006141722202301025 
v -0.040429603308439255 -1.2494169473648071 -0.0034439500886946917 
v -0.06584413349628448 -1.549090027809143 -0.030989622697234154 
v -0.03702206909656525 -1.2494169473648071 -0.017003804445266724 
v -0.051433101296424866 -1.549090027809143 -0.05143589526414871 
v -0.028645213693380356 -1.2494169473648071 -0.02871781401336193 
v -0.030916903167963028 -1.549090027809143 -0.06591866910457611 
v -0.017002804204821587 -1.2494169473648071 -0.037024110555648804 
v -0.006141288671642542 -1.549090027809143 -0.07266309857368469 
v -0.0035146477166563272 -1.2494169473648071 -0.04043182358145714 
v 0.01870531588792801 -1.549090027809143 -0.0701783075928688 
v 0.010186480358242989 -1.2494169473648071 -0.038940951228141785 
v 0.04149320349097252 -1.549090027809143 -0.059387221932411194 
v 0.023532656952738762 -1.2494169473648071 -0.03354540467262268 
v 0.010967373847961426 -1.2463899850845337 -0.015796905383467674 
v 0.005430129822343588 -1.2463899850845337 -0.019488593563437462 
v -0.0015979097224771976 -1.2463899850845337 -0.019701575860381126 
v -0.008341988548636436 -1.2463899850845337 -0.017784738913178444 
v -0.013950222171843052 -1.2463899850845337 -0.013951062224805355 
v -0.017783697694540024 -1.2463899850845337 -0.00834253616631031 
v -0.019700435921549797 -1.2463899850845337 -0.0015981059987097979 
v -0.019487464800477028 -1.2463899850845337 0.005430299788713455 
v -0.01579597033560276 -1.2463899850845337 0.010967832058668137 
v -0.010968629270792007 -1.2463899850845337 0.015795424580574036 
v -0.005431385710835457 -1.2463899850845337 0.019416118040680885 
v 0.0015966538339853287 -1.2463899850845337 0.01970009319484234 
v 0.00834073219448328 -1.2463899850845337 0.017783256247639656 
v 0.013948965817689896 -1.0859589576721191 0.013949579559266567 
v 0.00834073219448328 -1.0859589576721191 0.017783256247639656 
v 0.0015966538339853287 -1.0859589576721191 0.01970009319484234 
v -0.005431385710835457 -1.0859589576721191 0.019416118040680885 
v -0.010968629270792007 -1.0859589576721191 0.015795424580574036 
v -0.01579597033560276 -1.0859589576721191 0.010967832058668137 
v -0.019487464800477028 -1.0859589576721191 0.005430299788713455 
v -0.019700435921549797 -1.0859589576721191 -0.0015981059987097979 
v -0.017783697694540024 -1.0859589576721191 -0.00834253616631031 
v -0.013950222171843052 -1.0859589576721191 -0.013951062224805355 
v -0.008341988548636436 -1.0859589576721191 -0.017784738913178444 
v -0.0015979097224771976 -1.0859589576721191 -0.019701575860381126 
v 0.005430129822343588 -1.0859589576721191 -0.019488593563437462 
v 0.010967373847961426 -1.0859589576721191 -0.015796905383467674 
v 0.005430129822343588 1.5490444898605347 -0.019488593563437462 
v 0.010967373847961426 1.5490444898605347 -0.015796905383467674 
v -0.0015979097224771976 1.5490444898605347 -0.019701575860381126 
v -0.008341988548636436 1.5490444898605347 -0.017784738913178444 
v -0.013950222171843052 1.5490444898605347 -0.013951062224805355 
v -0.017783697694540024 1.5490444898605347 -0.00834253616631031 
v -0.019700435921549797 1.5490444898605347 -0.0015981059987097979 
v -0.019487464800477028 1.5490444898605347 0.005430299788713455 
v -0.01579597033560276 1.5490444898605347 0.010967832058668137 
v -0.010968629270792007 1.5490444898605347 0.015795424580574036 
v -0.005431385710835457 1.5490444898605347 0.019416118040680885 
v 0.0015966538339853287 1.5490444898605347 0.01970009319484234 
v 0.00834073219448328 1.5490444898605347 0.017783256247639656 
v 0.013948965817689896 1.5490444898605347 0.013949579559266567 
v 0.017782442271709442 1.5490444898605347 0.008341054432094097 
v 0.017782442271709442 -1.0859589576721191 0.008341054432094097 
v 0.019699180498719215 1.5490444898605347 0.001596624031662941 
v 0.017782442271709442 -1.2463899850845337 0.008341054432094097 
v 0.04042834788560867 -1.2494169473648071 0.003513461910188198 
v 0.07265794277191162 -1.549090027809143 0.006140240002423525 
v 0.0388665609061718 -1.2494169473648071 -0.010188380256295204 
v 0.07017328590154648 -1.549090027809143 -0.01870765909552574 
v 0.033542290329933167 -1.2494169473648071 -0.02353525161743164 
v 0.059382759034633636 -1.549090027809143 -0.04149673506617546 
v 0.023532656952738762 -1.2494169473648071 -0.03354540467262268 
v 0.04149320349097252 -1.549090027809143 -0.059387221932411194 
v 0.01579471305012703 -1.2463899850845337 -0.01096931379288435 
v 0.010967373847961426 -1.2463899850845337 -0.015796905383467674 
v 0.010967373847961426 -1.0859589576721191 -0.015796905383467674 
v 0.01579471305012703 -1.0859589576721191 -0.01096931379288435 
v 0.010967373847961426 1.5490444898605347 -0.015796905383467674 
v 0.01579471305012703 1.5490444898605347 -0.01096931379288435 
v 0.019486209377646446 -1.0859589576721191 -0.005431781988590956 
v 0.019486209377646446 1.5490444898605347 -0.005431781988590956 
v 0.019486209377646446 -1.2463899850845337 -0.005431781988590956 
v 0.019699180498719215 -1.2463899850845337 0.001596624031662941 
v 0.019699180498719215 -1.0859589576721191 0.001596624031662941 
vn 0.27365902066230774 0.45887041091918945 -0.8453097939491272 
vn -0.05470029637217522 0.8958877325057983 -0.4409002661705017 
vn 0.4444180727005005 0.7093163132667542 -0.5471406579017639 
vn 0.4117316007614136 0.9015664458274841 -0.1328723281621933 
vn 0.6913292407989502 0.4500054717063904 -0.5652954578399658 
vn -0.38246962428092957 0.4518888592720032 -0.8059239983558655 
vn -0.49813634157180786 0.7119609713554382 -0.4949462115764618 
vn -0.4393000900745392 0.8966801762580872 -0.05459024757146835 
vn -0.8065580129623413 0.4518565237522125 -0.3811691105365753 
vn -0.8448917865753174 0.45948997139930725 0.27391019463539124 
vn -0.5470201373100281 0.7066917419433594 0.4487268626689911 
vn -0.131632000207901 0.9010553956031799 0.41324591636657715 
vn 0.23821885883808136 0.8356314897537231 0.4949462115764618 
vn 0.6377657651901245 0.7098153233528137 0.2990269064903259 
vn 0.6328820586204529 0.45235690474510193 0.6283578276634216 
vn -0.5658765435218811 0.4502388536930084 0.6907016038894653 
vn 0.10636182874441147 0.45391568541526794 0.8846737742424011 
vn 0.885567307472229 0.451007217168808 0.1111890971660614 
vn 0.7031241655349731 0.10525216162204742 0.7032341957092285 
vn 0.5140888690948486 0.6896049380302429 0.5100564956665039 
vn 0.6566758155822754 0.6887018084526062 0.30735430121421814 
vn 0.5346965789794922 0.6532020568847656 0.5361219048500061 
vn 0.9008246064186096 0.10543202608823776 0.42118772864341736 
vn 0.42229822278022766 0.10438542813062668 0.9004265069961548 
vn 0.3025670051574707 0.6922553181648254 0.6551609039306641 
vn 0.07377650588750839 0.10789469629526138 0.991421103477478 
vn 0.05459746718406677 0.6901234984397888 0.7216291427612305 
vn -0.2577853202819824 0.10983205586671829 0.9599394202232361 
vn -0.18813899159431458 0.6887918710708618 0.7001210451126099 
vn -0.5639159083366394 0.10856965184211731 0.8186644315719604 
vn -0.41315606236457825 0.6904559135437012 0.5937783122062683 
vn -0.8186089992523193 0.10158934444189072 0.5652954578399658 
vn -0.5954299569129944 0.6913514733314514 0.40926313400268555 
vn -0.9602128863334656 0.1091388389468193 0.25706008076667786 
vn -0.6977022290229797 0.6910271048545837 0.18892620503902435 
vn -0.9914836287498474 0.10547405481338501 -0.0763898640871048 
vn -0.7184381484985352 0.693088173866272 -0.058952588587999344 
vn -0.9003781080245972 0.10917947441339493 -0.42118772864341736 
vn -0.6566758155822754 0.6887018084526062 -0.30735430121421814 
vn -0.7025273442268372 0.10916490107774734 -0.7032341957092285 
vn -0.5101534128189087 0.6925213932991028 -0.5100564956665039 
vn -0.42222824692726135 0.10466809570789337 -0.9004265069961548 
vn -0.30820563435554504 0.6897633671760559 -0.6551609039306641 
vn -0.07805262506008148 0.10484287142753601 -0.991421103477478 
vn -0.0603361614048481 0.6896454691886902 -0.7216291427612305 
vn 0.2575950622558594 0.11027751117944717 -0.9599394202232361 
vn 0.19026874005794525 0.6882066130638123 -0.7001210451126099 
vn 0.5645349621772766 0.10530353337526321 -0.8186644315719604 
vn 0.412090927362442 0.6910921335220337 -0.5937783122062683 
vn 0.47508612275123596 0.6494001150131226 -0.5937783122062683 
vn 0.22636893391609192 0.6575521230697632 -0.7185974717140198 
vn -0.0866675078868866 0.6510667204856873 -0.7540562748908997 
vn -0.3208860158920288 0.651404082775116 -0.6875353455543518 
vn -0.5338727831840515 0.653875470161438 -0.5361219048500061 
vn -0.6841560006141663 0.6534483432769775 -0.3239381015300751 
vn -0.7561919689178467 0.6482067108154297 -0.08945280313491821 
vn -0.7192016243934631 0.6565396785736084 0.22738653421401978 
vn -0.591877818107605 0.6505774259567261 0.4758462607860565 
vn -0.4759959578514099 0.6487334966659546 0.5937783122062683 
vn -0.22917675971984863 0.656578779220581 0.7185974717140198 
vn 0.08837933093309402 0.6508365869522095 0.7540562748908997 
vn 0.3220839202404022 0.6508126258850098 0.6875353455543518 
vn 0.7078787684440613 0 0.7063339352607727 
vn 0.4271230399608612 0 0.9041935205459595 
vn 0.12203799933195114 0 0.9925254583358765 
vn -0.3094097673892975 0.0037532320711761713 0.9509214162826538 
vn -0.6334428787231445 -1.310106266094041e-13 0.7737894654273987 
vn -0.7751715183258057 -1.6032337404273816e-13 0.6317508816719055 
vn -0.95159512758255 -1.9681185934455891e-13 0.30735430121421814 
vn -0.9927896857261658 -2.0533184527660175e-13 -0.11986933648586273 
vn -0.9032503366470337 0.0037785102613270283 -0.42909738421440125 
vn -0.7078686952590942 0.0037756471429020166 -0.7063339352607727 
vn -0.4271062910556793 0.0037798001430928707 -0.9041935205459595 
vn -0.12197896093130112 0.003795364871621132 -0.9925254583358765 
vn 0.30527463555336 0 -0.9522643685340881 
vn 0.6334428787231445 0 -0.7737894654273987 
vn 0.27365902066230774 0.45887041091918945 -0.8453097939491272 
vn 0.4444180727005005 0.7093163132667542 -0.5471406579017639 
vn -0.05470029637217522 0.8958877325057983 -0.4409002661705017 
vn -0.38246962428092957 0.4518888592720032 -0.8059239983558655 
vn -0.49813634157180786 0.7119609713554382 -0.4949462115764618 
vn -0.8065580129623413 0.4518565237522125 -0.3811691105365753 
vn -0.4393000900745392 0.8966801762580872 -0.05459024757146835 
vn -0.8448917865753174 0.45948997139930725 0.27391019463539124 
vn -0.5470201373100281 0.7066917419433594 0.4487268626689911 
vn -0.5658765435218811 0.4502388536930084 0.6907016038894653 
vn -0.131632000207901 0.9010553956031799 0.41324591636657715 
vn 0.10636182874441147 0.45391568541526794 0.8846737742424011 
vn 0.23821885883808136 0.8356314897537231 0.4949462115764618 
vn 0.6328820586204529 0.45235690474510193 0.6283578276634216 
vn 0.6377657651901245 0.7098153233528137 0.2990269064903259 
vn 0.903258204460144 0 0.42909738421440125 
vn 0.885567307472229 0.451007217168808 0.1111890971660614 
vn 0.6873850226402283 0.6500507593154907 0.3239381015300751 
vn 0.7210532426834106 0.6903671622276306 0.058952588587999344 
vn 0.9914836287498474 0.10547405481338501 0.0763898640871048 
vn 0.700354278087616 0.6883391737937927 -0.18892620503902435 
vn 0.960617184638977 0.10552125424146652 -0.25706008076667786 
vn 0.5946463942527771 0.6920255422592163 -0.40926313400268555 
vn 0.8181161880493164 0.10548440366983414 -0.5652954578399658 
vn 0.412090927362442 0.6910921335220337 -0.5937783122062683 
vn 0.5645349621772766 0.10530353337526321 -0.8186644315719604 
vn 0.591877818107605 0.6505774259567261 -0.4758462607860565 
vn 0.47508612275123596 0.6494001150131226 -0.5937783122062683 
vn 0.6334428787231445 0 -0.7737894654273987 
vn 0.7751715183258057 0 -0.6317508816719055 
vn 0.4444180727005005 0.7093163132667542 -0.5471406579017639 
vn 0.6913292407989502 0.4500054717063904 -0.5652954578399658 
vn 0.95159512758255 0 -0.30735430121421814 
vn 0.4117316007614136 0.9015664458274841 -0.1328723281621933 
vn 0.7160472869873047 0.6599785089492798 -0.22738653421401978 
vn 0.753730058670044 0.6510677337646484 0.08945280313491821 
vn 0.9922564625740051 0 0.1242060661315918 
s on 
f 1//1 2//2 3//3 
f 2//2 4//4 3//3 
f 3//3 4//4 5//5 
f 4//4 5//5 5//5 
f 5//5 5//5 6//6 
f 5//5 6//6 6//6 
f 6//6 6//6 2//2 
f 6//6 7//7 2//2 
f 2//2 7//7 8//8 
f 7//7 9//9 8//8 
f 8//8 9//9 9//9 
f 9//9 10//10 9//9 
f 9//9 10//10 10//10 
f 10//10 11//11 10//10 
f 10//10 11//11 8//8 
f 11//11 12//12 8//8 
f 8//8 12//12 2//2 
f 12//12 12//12 2//2 
f 2//2 12//12 4//4 
f 12//12 13//13 4//4 
f 4//4 13//13 14//14 
f 13//13 15//15 14//14 
f 14//14 15//15 15//15 
f 15//15 11//11 15//15 
f 15//15 11//11 11//11 
f 11//11 16//16 11//11 
f 11//11 16//16 12//12 
f 16//16 12//12 12//12 
f 12//12 12//12 13//13 
f 12//12 13//13 13//13 
f 13//13 13//13 17//17 
f 13//13 12//12 17//17 
f 17//17 12//12 12//12 
f 12//12 4//4 12//12 
f 12//12 4//4 4//4 
f 4//4 14//14 4//4 
f 4//4 14//14 18//18 
f 14//14 18//18 18//18 
f 18//18 18//18 19//19 
f 18//18 19//19 19//19 
f 19//19 19//19 20//20 
f 19//19 21//21 20//20 
f 20//20 21//21 22//22 
f 21//21 22//22 22//22 
f 22//22 22//22 19//19 
f 22//22 19//19 19//19 
f 19//19 19//19 21//21 
f 19//19 23//23 21//21 
f 21//21 23//23 23//23 
f 23//23 19//19 23//23 
f 23//23 19//19 19//19 
f 19//19 20//20 19//19 
f 19//19 20//20 24//24 
f 20//20 25//25 24//24 
f 24//24 25//25 26//26 
f 25//25 27//27 26//26 
f 26//26 27//27 28//28 
f 27//27 29//29 28//28 
f 28//28 29//29 30//30 
f 29//29 31//31 30//30 
f 30//30 31//31 32//32 
f 31//31 33//33 32//32 
f 32//32 33//33 34//34 
f 33//33 35//35 34//34 
f 34//34 35//35 36//36 
f 35//35 37//37 36//36 
f 36//36 37//37 38//38 
f 37//37 39//39 38//38 
f 38//38 39//39 40//40 
f 39//39 41//41 40//40 
f 40//40 41//41 42//42 
f 41//41 43//43 42//42 
f 42//42 43//43 44//44 
f 43//43 45//45 44//44 
f 44//44 45//45 46//46 
f 45//45 47//47 46//46 
f 46//46 47//47 48//48 
f 47//47 47//47 48//48 
f 48//48 47//47 49//49 
f 47//47 47//47 49//49 
f 49//49 47//47 50//50 
f 47//47 47//47 50//50 
f 50//50 47//47 51//51 
f 47//47 45//45 51//51 
f 51//51 45//45 52//52 
f 45//45 43//43 52//52 
f 52//52 43//43 53//53 
f 43//43 41//41 53//53 
f 53//53 41//41 54//54 
f 41//41 39//39 54//54 
f 54//54 39//39 55//55 
f 39//39 37//37 55//55 
f 55//55 37//37 56//56 
f 37//37 35//35 56//56 
f 56//56 35//35 57//57 
f 35//35 33//33 57//57 
f 57//57 33//33 58//58 
f 33//33 31//31 58//58 
f 58//58 31//31 59//59 
f 31//31 29//29 59//59 
f 59//59 29//29 60//60 
f 29//29 27//27 60//60 
f 60//60 27//27 61//61 
f 27//27 25//25 61//61 
f 61//61 25//25 62//62 
f 25//25 20//20 62//62 
f 62//62 20//20 62//62 
f 20//20 22//22 62//62 
f 62//62 22//22 62//62 
f 22//22 63//63 62//62 
f 62//62 63//63 62//62 
f 63//63 64//64 62//62 
f 62//62 64//64 61//61 
f 64//64 65//65 61//61 
f 61//61 65//65 60//60 
f 65//65 66//66 60//60 
f 60//60 66//66 59//59 
f 66//66 67//67 59//59 
f 59//59 67//67 58//58 
f 67//67 68//68 58//58 
f 58//58 68//68 57//57 
f 68//68 69//69 57//57 
f 57//57 69//69 56//56 
f 69//69 70//70 56//56 
f 56//56 70//70 55//55 
f 70//70 71//71 55//55 
f 55//55 71//71 54//54 
f 71//71 72//72 54//54 
f 54//54 72//72 53//53 
f 72//72 73//73 53//53 
f 53//53 73//73 52//52 
f 73//73 74//74 52//52 
f 52//52 74//74 51//51 
f 74//74 75//75 51//51 
f 51//51 75//75 50//50 
f 75//75 75//75 50//50 
f 50//50 75//75 76//76 
f 75//75 77//77 76//76 
f 76//76 77//77 78//78 
f 77//77 78//78 78//78 
f 78//78 78//78 77//77 
f 78//78 77//77 77//77 
f 77//77 77//77 79//79 
f 77//77 75//75 79//79 
f 79//79 75//75 79//79 
f 75//75 74//74 79//79 
f 79//79 74//74 80//80 
f 74//74 73//73 80//80 
f 80//80 73//73 81//81 
f 73//73 72//72 81//81 
f 81//81 72//72 82//82 
f 72//72 71//71 82//82 
f 82//82 71//71 83//83 
f 71//71 70//70 83//83 
f 83//83 70//70 84//84 
f 70//70 69//69 84//84 
f 84//84 69//69 85//85 
f 69//69 68//68 85//85 
f 85//85 68//68 86//86 
f 68//68 67//67 86//86 
f 86//86 67//67 87//87 
f 67//67 66//66 87//87 
f 87//87 66//66 88//88 
f 66//66 65//65 88//88 
f 88//88 65//65 89//89 
f 65//65 64//64 89//89 
f 89//89 64//64 90//90 
f 64//64 63//63 90//90 
f 90//90 63//63 91//91 
f 63//63 92//92 91//91 
f 91//91 92//92 93//93 
f 92//92 93//93 93//93 
f 93//93 93//93 63//63 
f 93//93 63//63 63//63 
f 63//63 63//63 92//92 
f 63//63 22//22 92//92 
f 92//92 22//22 94//94 
f 22//22 21//21 94//94 
f 94//94 21//21 95//95 
f 21//21 23//23 95//95 
f 95//95 23//23 95//95 
f 23//23 96//96 95//95 
f 95//95 96//96 97//97 
f 96//96 98//98 97//97 
f 97//97 98//98 99//99 
f 98//98 100//100 99//99 
f 99//99 100//100 101//101 
f 100//100 102//102 101//101 
f 101//101 102//102 102//102 
f 102//102 99//99 102//102 
f 102//102 99//99 99//99 
f 99//99 101//101 99//99 
f 99//99 101//101 103//103 
f 101//101 104//104 103//103 
f 103//103 104//104 103//103 
f 104//104 105//105 103//103 
f 103//103 105//105 106//106 
f 105//105 107//107 106//106 
f 106//106 107//107 106//106 
f 107//107 108//108 106//106 
f 106//106 108//108 109//109 
f 108//108 110//110 109//109 
f 109//109 110//110 110//110 
f 110//110 109//109 110//110 
f 110//110 109//109 109//109 
f 109//109 111//111 109//109 
f 109//109 111//111 106//106 
f 111//111 111//111 106//106 
f 106//106 111//111 103//103 
f 111//111 111//111 103//103 
f 103//103 111//111 99//99 
f 111//111 111//111 99//99 
f 99//99 111//111 97//97 
f 111//111 112//112 97//97 
f 97//97 112//112 95//95 
f 112//112 112//112 95//95 
f 95//95 112//112 94//94 
f 112//112 113//113 94//94 
f 94//94 113//113 92//92 
f 113//113 113//113 92//92 
f 92//92 113//113 93//93 
f 113//113 113//113 93//93 
f 93//93 113//113 110//110 
f 113//113 113//113 110//110 
f 110//110 113//113 109//109 
f 113//113 112//112 109//109 
f 109//109 112//112 111//111 

