mtllib model_306.mtl
o model_306
v -0.014299143105745316 -0.08455020189285278 -0.20500899851322174 
v -0.011277488432824612 -0.07212162762880325 -0.20335979759693146 
v 0.011281446553766727 -0.08298259228467941 -0.1901083141565323 
v 0.013679256662726402 -0.07042346149682999 -0.18960197269916534 
v 0.03507919982075691 -0.06824414432048798 -0.17576700448989868 
v 0.01596767269074917 -0.0572398416697979 -0.1889413297176361 
v 0.03658411651849747 -0.05491536110639572 -0.17584897577762604 
v 0.03365115821361542 -0.0808863565325737 -0.17556928098201752 
v -0.00841253250837326 -0.05903295800089836 -0.20152735710144043 
vn 0.4151654839515686 0.007561884354799986 -0.9097144603729248 
vn 0.4026361107826233 0.022679198533296585 -0.9150791168212891 
vn 0.5271350741386414 -0.060344766825437546 -0.8476362228393555 
vn 0.51369309425354 -0.04525822401046753 -0.8567795157432556 
vn 0.5105429887771606 -0.037719063460826874 -0.8590245246887207 
vn 0.4963259696960449 -0.022668343037366867 -0.8678402304649353 
vn 0.5329395532608032 -0.0377720445394516 -0.8453097939491272 
vn 0.4863867163658142 -0.05276675522327423 -0.872148871421814 
vn 0.38456934690475464 0.04523146152496338 -0.9219872951507568 
s on 
f 1//1 2//2 3//3 
f 2//2 4//4 3//3 
f 3//3 4//4 5//5 
f 4//4 6//6 5//5 
f 5//5 6//6 7//7 
f 6//6 7//7 7//7 
f 7//7 7//7 5//5 
f 7//7 5//5 5//5 
f 5//5 5//5 3//3 
f 5//5 8//8 3//3 
f 3//3 8//8 8//8 
f 8//8 4//4 8//8 
f 8//8 4//4 4//4 
f 4//4 2//2 4//4 
f 4//4 2//2 6//6 
f 2//2 9//9 6//6 

