mtllib model_275.mtl
o model_275
v -0.020738206803798676 1.5329023599624634 -0.011977948248386383 
v -0.023548725992441177 1.5329023599624634 -0.004194397479295731 
v -0.015372666530311108 1.5329023599624634 -0.0183777566999197 
v -0.00004255209933035076 1.5329023599624634 -0.023999210447072983 
v -0.008218612521886826 1.5329023599624634 -0.022528983652591705 
v -0.023633893579244614 1.5329023599624634 0.004194540902972221 
v -0.020738206803798676 1.5329023599624634 0.011978091672062874 
v -0.008218612521886826 1.5329023599624634 0.022529127076268196 
v -0.015372666530311108 1.5329023599624634 0.01837790012359619 
v -0.00004255209933035076 1.5329023599624634 0.02391286939382553 
v 0.0082186758518219 1.5329023599624634 0.022529127076268196 
v 0.0207382682710886 1.5329023599624634 0.011978091672062874 
v 0.023633956909179688 1.5329023599624634 -0.004194397479295731 
v 0.015372728928923607 1.5329023599624634 -0.0183777566999197 
v 0.0207382682710886 1.5329023599624634 -0.011977948248386383 
v 0.015372728928923607 1.5329023599624634 0.01837790012359619 
v 0.023633956909179688 1.5329023599624634 0.004194540902972221 
v 0.0082186758518219 1.5329023599624634 -0.022528983652591705 
v 0.07660801708698273 -1.5329099893569946 -0.0442364439368248 
v 0.04271143302321434 -1.236363410949707 -0.024691082537174225 
v 0.031724851578474045 -1.236363410949707 -0.03783663362264633 
v 0.0207382682710886 -1.2333680391311646 -0.011977948248386383 
v 0.05684920400381088 -1.5329099893569946 -0.06784655153751373 
v 0.08716876059770584 -1.5329099893569946 -0.01543730404227972 
v 0.04858797788619995 -1.236363410949707 -0.008605076000094414 
v 0.08716876059770584 -1.5329099893569946 0.015350963920354843 
v 0.04858797788619995 -1.236363410949707 0.008518735878169537 
v 0.07660801708698273 -1.5329099893569946 0.04423658549785614 
v 0.04271143302321434 -1.236363410949707 0.024691225960850716 
v 0.05684920400381088 -1.5329099893569946 0.06776020675897598 
v 0.031724851578474045 -1.236363410949707 0.03783677890896797 
v 0.030277006328105927 -1.5329099893569946 0.0831543430685997 
v 0.016905739903450012 -1.236363410949707 0.04639868438243866 
v 0.00004261520007275976 -1.5329099893569946 0.08851633965969086 
v 0.00004261520007275976 -1.236363410949707 0.049339137971401215 
v -0.030276942998170853 -1.5329099893569946 0.0831543430685997 
v -0.01690567657351494 -1.236363410949707 0.04639868438243866 
v -0.056934308260679245 -1.5329099893569946 0.06776020675897598 
v -0.03172478824853897 -1.236363410949707 0.03783677890896797 
v -0.07669312506914139 -1.5329099893569946 0.04423658549785614 
v -0.042711369693279266 -1.236363410949707 0.024691225960850716 
v -0.08716870099306107 -1.5329099893569946 0.015350963920354843 
v -0.04858791455626488 -1.236363410949707 0.008518735878169537 
v -0.08716870099306107 -1.5329099893569946 -0.015350820496678352 
v -0.04858791455626488 -1.236363410949707 -0.008518592454493046 
v -0.07660795748233795 -1.5329099893569946 -0.0442364439368248 
v -0.042711369693279266 -1.236363410949707 -0.024691082537174225 
v -0.056934308260679245 -1.5329099893569946 -0.06784655153751373 
v -0.03172478824853897 -1.236363410949707 -0.03783663362264633 
v -0.015372666530311108 -1.2333680391311646 -0.0183777566999197 
v -0.020738206803798676 -1.2333680391311646 -0.011977948248386383 
v -0.023548725992441177 -1.2333680391311646 -0.004194397479295731 
v -0.023633893579244614 -1.2333680391311646 0.004194540902972221 
v -0.020738206803798676 -1.2333680391311646 0.011978091672062874 
v -0.015372666530311108 -1.2333680391311646 0.01837790012359619 
v -0.008218612521886826 -1.2333680391311646 0.022529127076268196 
v -0.00004255209933035076 -1.2333680391311646 0.02391286939382553 
v 0.0082186758518219 -1.2333680391311646 0.022529127076268196 
v 0.015372728928923607 -1.2333680391311646 0.01837790012359619 
v 0.0207382682710886 -1.2333680391311646 0.011978091672062874 
v 0.023633956909179688 -1.2333680391311646 0.004194540902972221 
v 0.023633956909179688 -1.2333680391311646 -0.004194397479295731 
v 0.0207382682710886 -1.074610710144043 -0.011977948248386383 
v 0.023633956909179688 -1.074610710144043 -0.004194397479295731 
v 0.023633956909179688 -1.074610710144043 0.004194540902972221 
v 0.0207382682710886 -1.074610710144043 0.011978091672062874 
v 0.015372728928923607 -1.074610710144043 0.01837790012359619 
v 0.0082186758518219 -1.074610710144043 0.022529127076268196 
v -0.00004255209933035076 -1.074610710144043 0.02391286939382553 
v -0.008218612521886826 -1.074610710144043 0.022529127076268196 
v -0.015372666530311108 -1.074610710144043 0.01837790012359619 
v -0.020738206803798676 -1.074610710144043 0.011978091672062874 
v -0.023633893579244614 -1.074610710144043 0.004194540902972221 
v -0.023548725992441177 -1.074610710144043 -0.004194397479295731 
v -0.020738206803798676 -1.074610710144043 -0.011977948248386383 
v -0.015372666530311108 -1.074610710144043 -0.0183777566999197 
v -0.020738206803798676 1.5329023599624634 -0.011977948248386383 
v -0.015372666530311108 1.5329023599624634 -0.0183777566999197 
v -0.023548725992441177 1.5329023599624634 -0.004194397479295731 
v -0.023633893579244614 1.5329023599624634 0.004194540902972221 
v -0.020738206803798676 1.5329023599624634 0.011978091672062874 
v -0.015372666530311108 1.5329023599624634 0.01837790012359619 
v -0.008218612521886826 1.5329023599624634 0.022529127076268196 
v -0.00004255209933035076 1.5329023599624634 0.02391286939382553 
v 0.0082186758518219 1.5329023599624634 0.022529127076268196 
v 0.015372728928923607 1.5329023599624634 0.01837790012359619 
v 0.0207382682710886 1.5329023599624634 0.011978091672062874 
v 0.023633956909179688 1.5329023599624634 0.004194540902972221 
v 0.023633956909179688 1.5329023599624634 -0.004194397479295731 
v 0.0207382682710886 1.5329023599624634 -0.011977948248386383 
v 0.015372728928923607 1.5329023599624634 -0.0183777566999197 
v 0.015372728928923607 -1.074610710144043 -0.0183777566999197 
v 0.0082186758518219 1.5329023599624634 -0.022528983652591705 
v 0.015372728928923607 -1.2333680391311646 -0.0183777566999197 
v 0.016905739903450012 -1.236363410949707 -0.04639853909611702 
v 0.030277006328105927 -1.5329099893569946 -0.08315420150756836 
v 0.00004261520007275976 -1.236363410949707 -0.049338992685079575 
v 0.00004261520007275976 -1.5329099893569946 -0.08851619809865952 
v -0.01690567657351494 -1.236363410949707 -0.04639853909611702 
v -0.030276942998170853 -1.5329099893569946 -0.08315420150756836 
v -0.03172478824853897 -1.236363410949707 -0.03783663362264633 
v -0.056934308260679245 -1.5329099893569946 -0.06784655153751373 
v -0.008218612521886826 -1.2333680391311646 -0.022528983652591705 
v -0.015372666530311108 -1.2333680391311646 -0.0183777566999197 
v -0.015372666530311108 -1.074610710144043 -0.0183777566999197 
v -0.008218612521886826 -1.074610710144043 -0.022528983652591705 
v -0.015372666530311108 1.5329023599624634 -0.0183777566999197 
v -0.008218612521886826 1.5329023599624634 -0.022528983652591705 
v -0.00004255209933035076 -1.074610710144043 -0.023999210447072983 
v -0.00004255209933035076 1.5329023599624634 -0.023999210447072983 
v -0.00004255209933035076 -1.2333680391311646 -0.023999210447072983 
v 0.0082186758518219 -1.2333680391311646 -0.022528983652591705 
v 0.0082186758518219 -1.074610710144043 -0.022528983652591705 
vn -0.7740522027015686 0.450533390045166 -0.44481781125068665 
vn -0.4340726137161255 0.8976333141326904 -0.0763898640871048 
vn -0.45435264706611633 0.7114330530166626 -0.5361219048500061 
vn -0.00188738526776433 0.8975540995597839 -0.4409002661705017 
vn -0.3047248125076294 0.4522239863872528 -0.838234007358551 
vn -0.8791059851646423 0.4508934020996094 0.15449213981628418 
vn -0.6054808497428894 0.7134301662445068 0.3527185618877411 
vn -0.1483115702867508 0.8966217041015625 0.417220801115036 
vn -0.5707414746284485 0.45377427339553833 0.6843559741973877 
vn -4.6605331627345287e-14 0.4506781995296478 0.8926864862442017 
vn 0.24259105324745178 0.7124505043029785 0.6584556698799133 
vn 0.3821069300174713 0.8978257179260254 0.21886809170246124 
vn 0.5375354290008545 0.8380074501037598 -0.09380380809307098 
vn 0.451053649187088 0.7107468247413635 -0.5398051738739014 
vn 0.7721454501152039 0.4537934958934784 -0.44481781125068665 
vn 0.5707414746284485 0.45377427339553833 0.6843559741973877 
vn 0.8791059851646423 0.4508934020996094 0.15449213981628418 
vn 0.30785366892814636 0.4500998258590698 -0.838234007358551 
vn 0.8594581484794617 0.12790605425834656 -0.4949462115764618 
vn 0.6132915019989014 0.7067270278930664 -0.3527185618877411 
vn 0.451053649187088 0.7107468247413635 -0.5398051738739014 
vn 0.6461656093597412 0.6635103821754456 -0.37712597846984863 
vn 0.6375634670257568 0.12754108011722565 -0.7597671151161194 
vn 0.9767969846725464 0.12796328961849213 -0.17173540592193604 
vn 0.6922293901443481 0.710908830165863 -0.1242060661315918 
vn 0.9767969846725464 0.12796328961849213 0.17173540592193604 
vn 0.6922293901443481 0.710908830165863 0.1242060661315918 
vn 0.8594841957092285 0.12773066759109497 0.4949462115764618 
vn 0.6083530783653259 0.7109825611114502 0.3527185618877411 
vn 0.6376098990440369 0.12730881571769714 0.7597671151161194 
vn 0.45207247138023376 0.7100992202758789 0.5398051738739014 
vn 0.3379296362400055 0.13233888149261475 0.931820809841156 
vn 0.23883739113807678 0.7106755375862122 0.661737859249115 
vn 0.0037324668373912573 0.13065338134765625 0.991421103477478 
vn 0.00376924779266119 0.707868754863739 0.7063339352607727 
vn -0.3392835855484009 0.12882807850837708 0.931820809841156 
vn -0.24240660667419434 0.7094660401344299 0.661737859249115 
vn -0.6360912322998047 0.13469164073467255 0.7597671151161194 
vn -0.4552502930164337 0.7080661058425903 0.5398051738739014 
vn -0.8594841957092285 0.12773066759109497 0.4949462115764618 
vn -0.6112154126167297 0.7085233330726624 0.3527185618877411 
vn -0.9767969846725464 0.12796328961849213 0.17173540592193604 
vn -0.6922293901443481 0.710908830165863 0.1242060661315918 
vn -0.9767969846725464 0.12796328961849213 -0.17173540592193604 
vn -0.6922293901443481 0.710908830165863 -0.1242060661315918 
vn -0.8588942289352417 0.13163936138153076 -0.4949462115764618 
vn -0.6132915019989014 0.7067270278930664 -0.3527185618877411 
vn -0.6368120908737183 0.13124124705791473 -0.7597671151161194 
vn -0.451053649187088 0.7107468247413635 -0.5398051738739014 
vn -0.4804602861404419 0.6612968444824219 -0.5760593414306641 
vn -0.6479963660240173 0.6640145182609558 -0.37307560443878174 
vn -0.7407582402229309 0.6593592762947083 -0.12854042649269104 
vn -0.7407582402229309 0.6593592762947083 0.12854042649269104 
vn -0.6513717174530029 0.660703718662262 0.37307560443878174 
vn -0.478322297334671 0.6628449559211731 0.5760593414306641 
vn -0.2580689787864685 0.6624666452407837 0.7032341957092285 
vn -0.0037704522255808115 0.660087525844574 0.7511792182922363 
vn 0.25426745414733887 0.6606363654136658 0.7063339352607727 
vn 0.4813750386238098 0.6606312990188599 0.5760593414306641 
vn 0.6486811637878418 0.6633455753326416 0.37307560443878174 
vn 0.7382420301437378 0.6621752977371216 0.12854042649269104 
vn 0.7382420301437378 0.6621752977371216 -0.12854042649269104 
vn 0.8667527437210083 0 -0.4987381398677826 
vn 0.9851431250572205 0 -0.17173540592193604 
vn 0.9843833446502686 0 0.1760382205247879 
vn 0.8667527437210083 0 0.4987381398677826 
vn 0.6435311436653137 0 0.7654199600219727 
vn 0.3424763083457947 0 0.9395264387130737 
vn 0 0 1 
vn -0.3424763083457947 -7.083201213065049e-14 0.9395264387130737 
vn -0.6435311436653137 -1.3309710592771667e-13 0.7654199600219727 
vn -0.8667527437210083 -1.7926449441627718e-13 0.4987381398677826 
vn -0.9851431250572205 -2.0375036022517862e-13 0.17173540592193604 
vn -0.9851431250572205 -2.0375036022517862e-13 -0.17173540592193604 
vn -0.8667445182800293 0.0037766648456454277 -0.4987381398677826 
vn -0.6435199975967407 0.003778880462050438 -0.7654199600219727 
vn -0.7740522027015686 0.450533390045166 -0.44481781125068665 
vn -0.45435264706611633 0.7114330530166626 -0.5361219048500061 
vn -0.4340726137161255 0.8976333141326904 -0.0763898640871048 
vn -0.8791059851646423 0.4508934020996094 0.15449213981628418 
vn -0.6054808497428894 0.7134301662445068 0.3527185618877411 
vn -0.5707414746284485 0.45377427339553833 0.6843559741973877 
vn -0.1483115702867508 0.8966217041015625 0.417220801115036 
vn -4.6605331627345287e-14 0.4506781995296478 0.8926864862442017 
vn 0.24259105324745178 0.7124505043029785 0.6584556698799133 
vn 0.5707414746284485 0.45377427339553833 0.6843559741973877 
vn 0.3821069300174713 0.8978257179260254 0.21886809170246124 
vn 0.8791059851646423 0.4508934020996094 0.15449213981628418 
vn 0.5375354290008545 0.8380074501037598 -0.09380380809307098 
vn 0.7721454501152039 0.4537934958934784 -0.44481781125068665 
vn 0.451053649187088 0.7107468247413635 -0.5398051738739014 
vn 0.6435311436653137 0 -0.7654199600219727 
vn 0.30785366892814636 0.4500998258590698 -0.838234007358551 
vn 0.4804602861404419 0.6612968444824219 -0.5760593414306641 
vn 0.24456575512886047 0.7087246775627136 -0.661737859249115 
vn 0.33776581287384033 0.13275644183158875 -0.931820809841156 
vn 0.0018878303235396743 0.7078762650489807 -0.7063339352607727 
vn -1.3487558881981453e-14 0.13070669770240784 -0.991421103477478 
vn -0.24456575512886047 0.7087246775627136 -0.661737859249115 
vn -0.33776581287384033 0.13275644183158875 -0.931820809841156 
vn -0.451053649187088 0.7107468247413635 -0.5398051738739014 
vn -0.6368120908737183 0.13124124705791473 -0.7597671151161194 
vn -0.2602447271347046 0.6616149544715881 -0.7032341957092285 
vn -0.4804602861404419 0.6612968444824219 -0.5760593414306641 
vn -0.6435199975967407 0.003778880462050438 -0.7654199600219727 
vn -0.34245550632476807 0.003775085089728236 -0.9395264387130737 
vn -0.45435264706611633 0.7114330530166626 -0.5361219048500061 
vn -0.3047248125076294 0.4522239863872528 -0.838234007358551 
vn -2.0682311115474694e-13 0 -1 
vn -0.00188738526776433 0.8975540995597839 -0.4409002661705017 
vn -6.860055465308587e-14 0.6633741855621338 -0.7482877969741821 
vn 0.256724089384079 0.6629889607429504 -0.7032341957092285 
vn 0.3424763083457947 0 -0.9395264387130737 
s on 
f 1//1 2//2 3//3 
f 2//2 4//4 3//3 
f 3//3 4//4 5//5 
f 4//4 5//5 5//5 
f 5//5 5//5 6//6 
f 5//5 6//6 6//6 
f 6//6 6//6 2//2 
f 6//6 7//7 2//2 
f 2//2 7//7 8//8 
f 7//7 9//9 8//8 
f 8//8 9//9 9//9 
f 9//9 10//10 9//9 
f 9//9 10//10 10//10 
f 10//10 11//11 10//10 
f 10//10 11//11 8//8 
f 11//11 12//12 8//8 
f 8//8 12//12 2//2 
f 12//12 12//12 2//2 
f 2//2 12//12 4//4 
f 12//12 13//13 4//4 
f 4//4 13//13 14//14 
f 13//13 15//15 14//14 
f 14//14 15//15 15//15 
f 15//15 11//11 15//15 
f 15//15 11//11 11//11 
f 11//11 16//16 11//11 
f 11//11 16//16 12//12 
f 16//16 12//12 12//12 
f 12//12 12//12 13//13 
f 12//12 13//13 13//13 
f 13//13 13//13 17//17 
f 13//13 12//12 17//17 
f 17//17 12//12 12//12 
f 12//12 4//4 12//12 
f 12//12 4//4 4//4 
f 4//4 14//14 4//4 
f 4//4 14//14 18//18 
f 14//14 18//18 18//18 
f 18//18 18//18 19//19 
f 18//18 19//19 19//19 
f 19//19 19//19 20//20 
f 19//19 21//21 20//20 
f 20//20 21//21 22//22 
f 21//21 22//22 22//22 
f 22//22 22//22 19//19 
f 22//22 19//19 19//19 
f 19//19 19//19 21//21 
f 19//19 23//23 21//21 
f 21//21 23//23 23//23 
f 23//23 19//19 23//23 
f 23//23 19//19 19//19 
f 19//19 20//20 19//19 
f 19//19 20//20 24//24 
f 20//20 25//25 24//24 
f 24//24 25//25 26//26 
f 25//25 27//27 26//26 
f 26//26 27//27 28//28 
f 27//27 29//29 28//28 
f 28//28 29//29 30//30 
f 29//29 31//31 30//30 
f 30//30 31//31 32//32 
f 31//31 33//33 32//32 
f 32//32 33//33 34//34 
f 33//33 35//35 34//34 
f 34//34 35//35 36//36 
f 35//35 37//37 36//36 
f 36//36 37//37 38//38 
f 37//37 39//39 38//38 
f 38//38 39//39 40//40 
f 39//39 41//41 40//40 
f 40//40 41//41 42//42 
f 41//41 43//43 42//42 
f 42//42 43//43 44//44 
f 43//43 45//45 44//44 
f 44//44 45//45 46//46 
f 45//45 47//47 46//46 
f 46//46 47//47 48//48 
f 47//47 47//47 48//48 
f 48//48 47//47 49//49 
f 47//47 47//47 49//49 
f 49//49 47//47 50//50 
f 47//47 47//47 50//50 
f 50//50 47//47 51//51 
f 47//47 45//45 51//51 
f 51//51 45//45 52//52 
f 45//45 43//43 52//52 
f 52//52 43//43 53//53 
f 43//43 41//41 53//53 
f 53//53 41//41 54//54 
f 41//41 39//39 54//54 
f 54//54 39//39 55//55 
f 39//39 37//37 55//55 
f 55//55 37//37 56//56 
f 37//37 35//35 56//56 
f 56//56 35//35 57//57 
f 35//35 33//33 57//57 
f 57//57 33//33 58//58 
f 33//33 31//31 58//58 
f 58//58 31//31 59//59 
f 31//31 29//29 59//59 
f 59//59 29//29 60//60 
f 29//29 27//27 60//60 
f 60//60 27//27 61//61 
f 27//27 25//25 61//61 
f 61//61 25//25 62//62 
f 25//25 20//20 62//62 
f 62//62 20//20 62//62 
f 20//20 22//22 62//62 
f 62//62 22//22 62//62 
f 22//22 63//63 62//62 
f 62//62 63//63 62//62 
f 63//63 64//64 62//62 
f 62//62 64//64 61//61 
f 64//64 65//65 61//61 
f 61//61 65//65 60//60 
f 65//65 66//66 60//60 
f 60//60 66//66 59//59 
f 66//66 67//67 59//59 
f 59//59 67//67 58//58 
f 67//67 68//68 58//58 
f 58//58 68//68 57//57 
f 68//68 69//69 57//57 
f 57//57 69//69 56//56 
f 69//69 70//70 56//56 
f 56//56 70//70 55//55 
f 70//70 71//71 55//55 
f 55//55 71//71 54//54 
f 71//71 72//72 54//54 
f 54//54 72//72 53//53 
f 72//72 73//73 53//53 
f 53//53 73//73 52//52 
f 73//73 74//74 52//52 
f 52//52 74//74 51//51 
f 74//74 75//75 51//51 
f 51//51 75//75 50//50 
f 75//75 75//75 50//50 
f 50//50 75//75 76//76 
f 75//75 77//77 76//76 
f 76//76 77//77 78//78 
f 77//77 78//78 78//78 
f 78//78 78//78 77//77 
f 78//78 77//77 77//77 
f 77//77 77//77 79//79 
f 77//77 75//75 79//79 
f 79//79 75//75 79//79 
f 75//75 74//74 79//79 
f 79//79 74//74 80//80 
f 74//74 73//73 80//80 
f 80//80 73//73 81//81 
f 73//73 72//72 81//81 
f 81//81 72//72 82//82 
f 72//72 71//71 82//82 
f 82//82 71//71 83//83 
f 71//71 70//70 83//83 
f 83//83 70//70 84//84 
f 70//70 69//69 84//84 
f 84//84 69//69 85//85 
f 69//69 68//68 85//85 
f 85//85 68//68 86//86 
f 68//68 67//67 86//86 
f 86//86 67//67 87//87 
f 67//67 66//66 87//87 
f 87//87 66//66 88//88 
f 66//66 65//65 88//88 
f 88//88 65//65 89//89 
f 65//65 64//64 89//89 
f 89//89 64//64 90//90 
f 64//64 63//63 90//90 
f 90//90 63//63 91//91 
f 63//63 92//92 91//91 
f 91//91 92//92 93//93 
f 92//92 93//93 93//93 
f 93//93 93//93 63//63 
f 93//93 63//63 63//63 
f 63//63 63//63 92//92 
f 63//63 22//22 92//92 
f 92//92 22//22 94//94 
f 22//22 21//21 94//94 
f 94//94 21//21 95//95 
f 21//21 23//23 95//95 
f 95//95 23//23 95//95 
f 23//23 96//96 95//95 
f 95//95 96//96 97//97 
f 96//96 98//98 97//97 
f 97//97 98//98 99//99 
f 98//98 100//100 99//99 
f 99//99 100//100 101//101 
f 100//100 102//102 101//101 
f 101//101 102//102 102//102 
f 102//102 99//99 102//102 
f 102//102 99//99 99//99 
f 99//99 101//101 99//99 
f 99//99 101//101 103//103 
f 101//101 104//104 103//103 
f 103//103 104//104 103//103 
f 104//104 105//105 103//103 
f 103//103 105//105 106//106 
f 105//105 107//107 106//106 
f 106//106 107//107 106//106 
f 107//107 108//108 106//106 
f 106//106 108//108 109//109 
f 108//108 110//110 109//109 
f 109//109 110//110 110//110 
f 110//110 109//109 110//110 
f 110//110 109//109 109//109 
f 109//109 111//111 109//109 
f 109//109 111//111 106//106 
f 111//111 111//111 106//106 
f 106//106 111//111 103//103 
f 111//111 111//111 103//103 
f 103//103 111//111 99//99 
f 111//111 111//111 99//99 
f 99//99 111//111 97//97 
f 111//111 112//112 97//97 
f 97//97 112//112 95//95 
f 112//112 112//112 95//95 
f 95//95 112//112 94//94 
f 112//112 113//113 94//94 
f 94//94 113//113 92//92 
f 113//113 113//113 92//92 
f 92//92 113//113 93//93 
f 113//113 113//113 93//93 
f 93//93 113//113 110//110 
f 113//113 113//113 110//110 
f 110//110 113//113 109//109 
f 113//113 112//112 109//109 
f 109//109 112//112 111//111 

