mtllib model_80.mtl
o model_80
v -142.520263671875 385.1419677734375 1919.1605224609375 
v -142.1188201904297 408.6650695800781 1957.80224609375 
v -142.99891662597656 376.32080078125 1873.087646484375 
v -143.7246856689453 749.75 1803.2352294921875 
v -143.72462463378906 376.32080078125 1803.2352294921875 
v -141.8409423828125 690.9422607421875 1984.55419921875 
v -142.52032470703125 740.9288330078125 1919.1605224609375 
v -142.9989776611328 749.75 1873.087646484375 
v -141.76370239257812 488.0555114746094 1991.9853515625 
v -141.76373291015625 638.0152587890625 1991.9853515625 
v -141.85633850097656 443.94970703125 1983.0679931640625 
v -142.11886596679688 717.4057006835938 1957.80224609375 
v -138.18397521972656 678.5548706054688 2336.576171875 
v -138.33616638183594 652.1959838867188 2321.9267578125 
v -137.84153747558594 696.12744140625 2369.537109375 
v -134.49330139160156 702.7171630859375 2691.822509765625 
v -137.49911499023438 702.7171630859375 2402.498291015625 
v -138.14588928222656 447.9148254394531 2340.238525390625 
v -134.15081787109375 430.3422546386719 2724.783447265625 
v -133.5801239013672 619.2474365234375 2779.71826171875 
v -133.6562042236328 474.273681640625 2772.393798828125 
v -133.58010864257812 507.2222595214844 2779.71826171875 
v -133.8464813232422 678.5548706054688 2754.08203125 
v -134.15086364746094 696.12744140625 2724.783447265625 
v -138.41224670410156 619.2474365234375 2314.602294921875 
v -138.4122314453125 507.2222595214844 2314.602294921875 
v -134.49325561523438 423.7525634765625 2691.822509765625 
v -137.4990692138672 423.7525634765625 2402.498291015625 
v -137.8415069580078 430.3422546386719 2369.537109375 
v -138.3361358642578 474.273681640625 2321.9267578125 
v -133.846435546875 447.9148254394531 2754.08203125 
v -133.65623474121094 658.7857055664062 2772.393798828125 
vn -0.060956764966249466 -9.931656386186205e-9 0.0006332839839160442 
vn -0.060956764966249466 -9.931656386186205e-9 0.0006332839839160442 
vn -0.060956764966249466 -9.931656386186205e-9 0.0006332839839160442 
vn -0.060956764966249466 -9.931656386186205e-9 0.0006332839839160442 
vn -0.060956764966249466 -9.931656386186205e-9 0.0006332839839160442 
vn -0.060956764966249466 -9.931656386186205e-9 0.0006332839839160442 
vn -0.060956764966249466 -9.931656386186205e-9 0.0006332839839160442 
vn -0.060956764966249466 -9.931656386186205e-9 0.0006332839839160442 
vn -0.060956764966249466 -9.931656386186205e-9 0.0006332839839160442 
vn -0.060956764966249466 -9.931656386186205e-9 0.0006332839839160442 
vn -0.060956764966249466 -9.931656386186205e-9 0.0006332839839160442 
vn -0.060956764966249466 -9.931656386186205e-9 0.0006332839839160442 
vn -0.060956764966249466 -9.931656386186205e-9 0.0006332839839160442 
vn -0.060956764966249466 -9.931656386186205e-9 0.0006332839839160442 
vn -0.060956764966249466 -9.931656386186205e-9 0.0006332839839160442 
vn -0.060956764966249466 -9.931656386186205e-9 0.0006332839839160442 
vn -0.060956764966249466 -9.931656386186205e-9 0.0006332839839160442 
vn -0.060956764966249466 -9.931656386186205e-9 0.0006332839839160442 
vn -0.060956764966249466 -9.931656386186205e-9 0.0006332839839160442 
vn -0.060956764966249466 -9.931656386186205e-9 0.0006332839839160442 
vn -0.060956764966249466 -9.931656386186205e-9 0.0006332839839160442 
vn -0.060956764966249466 -9.931656386186205e-9 0.0006332839839160442 
vn -0.060956764966249466 -9.931656386186205e-9 0.0006332839839160442 
vn -0.060956764966249466 -9.931656386186205e-9 0.0006332839839160442 
vn -0.060956764966249466 -9.931656386186205e-9 0.0006332839839160442 
vn -0.060956764966249466 -9.931656386186205e-9 0.0006332839839160442 
vn -0.060956764966249466 -9.931656386186205e-9 0.0006332839839160442 
vn -0.060956764966249466 -9.931656386186205e-9 0.0006332839839160442 
vn -0.060956764966249466 -9.931656386186205e-9 0.0006332839839160442 
vn -0.060956764966249466 -9.931656386186205e-9 0.0006332839839160442 
vn -0.060956764966249466 -9.931656386186205e-9 0.0006332839839160442 
vn -0.060956764966249466 -9.931656386186205e-9 0.0006332839839160442 
s on 
f 1//1 2//2 3//3 
f 2//2 4//4 3//3 
f 3//3 4//4 5//5 
f 4//4 5//5 5//5 
f 5//5 5//5 2//2 
f 5//5 2//2 2//2 
f 2//2 2//2 2//2 
f 2//2 6//6 2//2 
f 2//2 6//6 4//4 
f 6//6 7//7 4//4 
f 4//4 7//7 8//8 
f 7//7 8//8 8//8 
f 8//8 8//8 2//2 
f 8//8 2//2 2//2 
f 2//2 2//2 2//2 
f 2//2 9//9 2//2 
f 2//2 9//9 6//6 
f 9//9 10//10 6//6 
f 6//6 10//10 10//10 
f 10//10 13//13 10//10 
f 10//10 13//13 13//13 
f 13//13 14//14 13//13 
f 13//13 14//14 15//15 
f 14//14 16//16 15//15 
f 15//15 16//16 17//17 
f 16//16 17//17 17//17 
f 17//17 17//17 14//14 
f 17//17 14//14 14//14 
f 14//14 14//14 14//14 
f 14//14 18//18 14//14 
f 14//14 18//18 16//16 
f 18//18 19//19 16//16 
f 16//16 19//19 20//20 
f 19//19 21//21 20//20 
f 20//20 21//21 22//22 
f 21//21 22//22 22//22 
f 22//22 22//22 20//20 
f 22//22 20//20 20//20 
f 20//20 20//20 20//20 
f 20//20 23//23 20//20 
f 20//20 23//23 16//16 
f 23//23 24//24 16//16 
f 16//16 24//24 24//24 
f 24//24 25//25 24//24 
f 24//24 25//25 25//25 
f 25//25 26//26 25//25 
f 25//25 26//26 14//14 
f 26//26 18//18 14//14 
f 14//14 18//18 18//18 
f 18//18 27//27 18//18 
f 18//18 27//27 27//27 
f 27//27 19//19 27//27 
f 27//27 19//19 28//28 
f 19//19 18//18 28//28 
f 28//28 18//18 29//29 
f 2//2 11//11 9//9 
f 6//6 12//12 7//7 
f 26//26 30//30 18//18 
f 19//19 31//31 21//21 
f 20//20 32//32 23//23 

